<svg id="svg" version="1.1" xmlns="http://www.w3.org/2000/svg" xmlns:xlink="http://www.w3.org/1999/xlink" width="400" height="400" viewBox="0, 0, 400,400"><g id="svgg"><path id="path0" d="M77.400 175.672 C 75.640 176.100,72.850 176.724,71.200 177.059 C 63.297 178.660,60.893 179.300,59.600 180.143 C 58.830 180.646,57.300 181.289,56.200 181.572 C 52.896 182.424,49.416 184.352,44.779 187.900 C 43.845 188.615,42.764 189.200,42.378 189.200 C 41.641 189.200,38.903 191.210,37.200 193.001 C 36.650 193.580,35.542 194.685,34.738 195.458 C 33.934 196.230,32.773 197.659,32.158 198.631 C 31.544 199.604,30.916 200.400,30.765 200.400 C 30.613 200.400,30.366 201.075,30.217 201.900 C 30.067 202.725,29.450 204.030,28.847 204.800 C 25.970 208.468,25.848 215.036,28.698 212.794 C 29.254 212.357,29.933 212.000,30.208 212.000 C 31.539 212.000,35.481 209.234,36.032 207.913 C 36.282 207.316,36.827 206.718,37.243 206.586 C 37.659 206.454,38.000 206.178,38.000 205.973 C 38.000 205.768,38.188 205.600,38.417 205.600 C 38.646 205.600,39.231 205.224,39.717 204.765 C 40.203 204.305,41.442 203.498,42.472 202.972 C 43.501 202.446,44.458 201.829,44.599 201.602 C 44.739 201.375,45.585 200.816,46.478 200.360 C 47.371 199.905,48.483 199.127,48.951 198.631 C 50.286 197.215,53.530 196.552,54.479 197.501 C 55.207 198.229,55.188 198.285,53.678 199.825 L 52.132 201.403 51.893 205.612 C 51.710 208.846,51.364 210.670,50.398 213.481 C 49.707 215.493,49.199 217.648,49.271 218.270 L 49.400 219.400 53.518 219.514 C 57.268 219.618,57.752 219.547,58.918 218.715 C 61.219 217.075,72.363 217.848,74.388 219.788 C 75.138 220.507,75.901 220.807,77.022 220.824 C 79.775 220.865,82.516 221.471,83.010 222.147 C 83.917 223.386,86.633 223.001,88.281 221.400 C 89.074 220.630,89.920 219.995,90.161 219.989 C 90.403 219.983,91.045 219.378,91.588 218.646 C 92.132 217.913,93.077 217.026,93.688 216.675 C 94.300 216.324,94.802 215.714,94.804 215.319 C 94.810 214.202,96.744 210.314,97.588 209.723 C 99.425 208.436,100.171 200.392,98.878 195.800 C 98.659 195.022,98.725 193.985,99.066 192.850 C 99.745 190.591,99.510 176.255,98.779 175.375 C 97.986 174.419,81.615 174.647,77.400 175.672 M45.000 220.369 C 44.221 220.673,44.224 220.689,45.083 220.962 C 46.272 221.340,49.071 220.818,48.340 220.354 C 47.683 219.938,46.084 219.945,45.000 220.369 " stroke="none" fill="#d2ccc1" fill-rule="evenodd"></path><path id="path1" d="M366.476 20.685 C 365.532 20.866,365.440 21.004,365.034 22.868 L 364.801 23.937 355.300 24.068 C 344.747 24.215,343.509 24.465,343.273 26.503 L 343.147 27.600 337.873 27.647 C 334.973 27.673,330.805 27.808,328.611 27.947 L 324.622 28.200 324.288 29.900 L 323.953 31.600 315.191 31.600 C 305.560 31.600,305.600 31.589,305.600 34.145 L 305.600 35.143 296.967 35.272 C 287.553 35.412,287.200 35.506,287.200 37.876 C 287.200 38.791,287.151 38.800,282.100 38.832 C 275.450 38.874,273.532 39.353,273.017 41.100 C 272.635 42.398,272.630 42.400,269.980 42.400 C 268.520 42.400,265.137 42.518,262.463 42.661 L 257.600 42.923 257.600 44.636 L 257.600 46.348 250.585 46.474 C 242.977 46.611,242.819 46.660,242.806 48.900 L 242.800 50.000 239.100 50.030 C 234.396 50.069,232.730 50.625,232.217 52.328 C 231.862 53.508,231.702 53.602,230.017 53.630 C 225.488 53.704,224.658 54.033,224.289 55.900 L 223.953 57.600 221.005 57.600 C 217.698 57.600,216.800 58.106,216.800 59.971 C 216.800 61.050,216.719 61.092,214.202 61.327 C 210.992 61.627,210.137 62.064,209.805 63.576 C 209.568 64.656,209.384 64.769,207.673 64.879 L 205.800 65.000 205.677 66.700 L 205.554 68.400 203.227 68.400 C 199.234 68.400,198.401 68.702,198.394 70.150 C 198.385 71.923,198.006 72.323,196.195 72.470 C 194.628 72.598,194.598 72.630,194.477 74.300 L 194.354 76.000 192.577 76.000 L 190.800 76.000 190.800 77.777 L 190.800 79.554 189.100 79.677 L 187.400 79.800 187.285 83.500 L 187.170 87.200 186.061 87.200 C 183.674 87.200,183.536 87.595,183.299 95.125 L 183.083 102.000 181.732 102.000 C 179.825 102.000,179.600 102.889,179.600 110.426 L 179.600 116.800 178.280 116.800 C 176.162 116.800,176.000 117.233,176.000 122.880 L 176.000 128.000 174.200 128.000 L 172.400 128.000 172.400 131.547 L 172.400 135.095 170.767 135.314 C 168.689 135.592,168.860 135.283,168.549 139.325 C 168.284 142.778,168.275 142.800,167.190 142.800 C 165.383 142.800,165.056 143.645,164.873 148.790 L 164.705 153.506 163.052 153.854 L 161.400 154.202 161.285 157.679 L 161.170 161.155 159.485 161.278 L 157.800 161.400 157.678 163.300 C 157.583 164.784,157.405 165.200,156.867 165.200 C 155.730 165.200,154.480 166.324,154.200 167.600 L 153.936 168.800 147.868 168.806 C 141.021 168.813,140.110 169.070,139.400 171.200 C 139.044 172.268,138.682 172.630,137.871 172.726 C 136.705 172.865,135.618 174.121,135.568 175.389 C 135.550 175.835,135.325 175.390,135.068 174.400 L 134.600 172.600 131.100 172.484 L 127.600 172.369 127.600 170.631 C 127.600 168.582,127.264 168.414,123.145 168.405 L 120.489 168.400 120.223 166.982 C 119.895 165.234,118.930 164.800,115.374 164.800 L 112.800 164.800 112.800 162.800 L 112.800 160.800 114.151 160.800 C 116.458 160.800,116.585 160.345,116.742 151.501 C 116.912 141.997,117.455 142.794,110.618 142.507 C 105.300 142.284,105.145 142.253,105.364 141.439 C 105.488 140.977,105.592 138.497,105.595 135.927 C 105.600 131.431,105.634 131.244,106.500 130.980 C 109.665 130.015,109.733 125.350,106.592 124.562 C 105.785 124.360,105.622 124.040,105.520 122.462 L 105.400 120.600 98.000 120.492 L 90.600 120.384 90.714 111.192 L 90.829 102.000 89.091 102.000 C 87.373 102.000,87.349 101.981,86.977 100.300 L 86.600 98.600 83.435 98.482 C 79.935 98.352,79.616 98.536,79.606 100.700 L 79.600 102.000 76.900 101.954 C 75.415 101.928,74.509 101.826,74.887 101.727 C 75.975 101.441,76.071 99.850,75.931 84.483 C 75.773 67.108,76.466 68.788,69.341 68.509 C 62.460 68.241,61.439 68.521,61.277 70.723 L 61.154 72.400 59.377 72.400 L 57.600 72.400 57.600 74.400 C 57.600 76.206,57.513 76.401,56.700 76.406 C 54.612 76.420,53.600 78.851,53.600 83.850 L 53.600 87.200 51.800 87.200 L 50.000 87.200 50.000 90.777 L 50.000 94.354 48.300 94.477 L 46.600 94.600 46.485 98.300 L 46.370 102.000 44.585 102.000 L 42.800 102.000 42.796 104.100 C 42.787 108.236,42.475 109.103,40.857 109.485 C 39.118 109.897,38.859 110.831,38.823 116.817 L 38.800 120.635 37.507 121.017 C 35.508 121.609,35.266 123.053,35.231 134.624 C 35.197 145.533,35.258 145.852,37.400 146.075 L 38.600 146.200 38.800 153.315 C 39.017 161.018,39.068 161.181,41.300 161.194 C 42.365 161.200,42.402 161.272,42.454 163.500 C 42.484 164.765,42.619 167.955,42.754 170.589 L 43.000 175.377 44.800 175.747 L 46.600 176.117 45.320 176.465 C 43.917 176.846,43.629 177.166,42.953 179.093 C 42.618 180.047,42.617 180.313,42.949 180.108 C 43.197 179.955,43.850 179.874,44.400 179.929 C 45.951 180.085,54.058 178.574,55.400 177.880 C 60.289 175.352,63.323 174.256,68.850 173.022 C 70.087 172.746,71.887 172.148,72.850 171.692 C 77.937 169.285,100.388 169.360,104.225 171.797 C 104.972 172.270,105.021 172.546,104.737 174.660 C 103.982 180.281,103.890 183.275,104.405 185.421 C 104.834 187.209,104.835 188.011,104.409 189.899 C 103.738 192.875,103.773 197.845,104.472 198.686 C 105.389 199.791,105.055 205.348,103.876 208.600 C 102.260 213.058,100.113 217.695,99.034 219.054 C 97.677 220.764,96.400 224.566,96.400 226.895 C 96.400 229.052,93.068 233.200,91.335 233.200 C 90.788 233.200,89.958 233.996,88.832 235.600 C 86.810 238.483,84.265 239.138,83.774 236.900 C 83.337 234.906,83.238 234.800,81.820 234.800 C 80.375 234.800,80.283 234.676,79.911 232.200 C 79.812 231.543,79.383 231.356,77.508 231.154 C 74.293 230.808,72.862 229.739,73.153 227.900 C 73.179 227.735,73.006 227.600,72.769 227.600 C 72.219 227.600,72.407 230.892,72.980 231.294 C 73.211 231.456,74.052 231.591,74.850 231.594 C 76.141 231.599,76.326 231.732,76.541 232.807 C 76.790 234.049,78.385 235.045,79.464 234.631 C 79.754 234.520,79.958 234.557,79.919 234.714 C 79.487 236.442,81.318 238.672,82.841 238.273 C 83.259 238.164,83.498 238.242,83.371 238.447 C 82.999 239.049,83.986 244.551,84.572 245.141 C 84.868 245.438,86.390 245.883,87.955 246.129 L 90.800 246.577 90.823 248.189 C 90.859 250.820,91.634 252.527,93.000 252.986 C 94.453 253.475,94.786 253.889,94.794 255.220 C 94.802 256.592,95.498 257.200,97.057 257.200 C 98.296 257.200,98.359 257.275,98.477 258.897 C 98.574 260.236,98.768 260.618,99.400 260.712 C 101.863 261.079,102.000 261.178,102.000 262.594 C 102.000 264.111,102.804 264.800,104.574 264.800 C 105.409 264.800,105.600 264.991,105.600 265.826 C 105.600 267.589,106.290 268.400,107.791 268.400 C 109.073 268.400,109.173 268.499,109.488 270.095 C 109.793 271.636,109.951 271.811,111.225 272.018 C 113.040 272.313,113.600 272.680,113.600 273.575 C 113.600 274.479,114.254 275.040,115.802 275.463 C 116.965 275.781,116.948 275.796,115.200 275.995 C 113.409 276.199,113.399 276.209,113.278 277.879 L 113.156 279.558 111.278 279.679 L 109.400 279.800 109.280 281.447 L 109.159 283.093 106.091 283.371 C 102.526 283.694,102.000 284.013,102.000 285.849 C 102.000 287.178,101.972 287.200,100.247 287.200 C 98.395 287.200,98.019 287.653,98.005 289.900 C 98.001 290.688,97.788 290.803,96.300 290.823 C 93.466 290.860,91.856 291.611,91.417 293.100 C 91.088 294.217,90.854 294.400,89.750 294.400 C 87.615 294.400,87.200 294.732,87.200 296.443 C 87.200 297.969,87.170 298.001,85.700 298.036 C 84.875 298.055,81.230 298.152,77.600 298.250 C 68.690 298.491,68.400 298.428,68.400 296.265 L 68.400 294.567 66.708 294.583 C 65.076 294.599,65.007 294.549,64.785 293.186 C 64.398 290.816,64.360 290.800,59.244 290.800 C 54.085 290.800,53.136 291.294,53.731 293.669 C 53.960 294.583,53.906 294.601,50.707 294.658 C 46.671 294.730,46.400 295.008,46.400 299.076 L 46.400 302.000 44.656 302.000 L 42.912 302.000 42.798 304.900 C 42.735 306.495,42.664 308.188,42.641 308.662 C 42.619 309.136,42.468 309.442,42.307 309.342 C 40.623 308.301,37.921 311.454,39.000 313.200 C 39.385 313.823,41.571 312.763,42.591 311.460 C 43.340 310.504,43.893 310.200,44.889 310.200 C 46.034 310.200,46.217 310.055,46.331 309.057 C 46.403 308.429,46.300 308.015,46.102 308.137 C 45.096 308.759,43.231 306.848,43.418 305.386 C 43.573 304.174,44.800 302.102,44.800 303.051 C 44.800 303.221,45.016 303.144,45.280 302.880 C 45.933 302.227,49.591 302.243,49.628 302.900 C 49.684 303.885,50.344 301.774,50.372 300.524 C 50.405 299.032,50.619 298.858,52.894 298.469 C 54.693 298.162,55.146 297.214,54.312 295.500 C 54.107 295.078,54.127 294.800,54.363 294.800 C 54.578 294.800,54.685 294.440,54.600 294.000 C 54.515 293.560,54.626 293.200,54.847 293.200 C 55.067 293.200,55.134 293.017,54.995 292.793 C 54.628 292.198,57.242 291.194,58.042 291.622 C 58.401 291.815,58.784 291.883,58.892 291.775 C 59.000 291.666,59.609 291.792,60.245 292.053 C 60.880 292.315,61.580 292.485,61.800 292.431 C 62.020 292.377,62.080 292.453,61.933 292.600 C 61.787 292.747,62.012 293.212,62.433 293.633 C 63.452 294.652,63.401 295.112,62.283 294.989 C 61.113 294.861,60.142 295.574,59.620 296.947 C 59.094 298.330,59.318 298.415,63.851 298.566 C 65.803 298.631,67.625 298.710,67.900 298.742 C 68.206 298.778,68.400 299.413,68.400 300.379 L 68.400 301.959 74.100 302.079 C 80.468 302.214,82.905 302.093,82.635 301.656 C 82.535 301.494,82.635 301.100,82.857 300.781 C 83.208 300.276,83.240 300.277,83.101 300.789 C 82.764 302.027,86.172 304.353,90.748 306.011 C 94.315 307.302,95.243 309.950,93.093 312.700 C 92.878 312.975,92.833 313.200,92.993 313.200 C 93.318 313.200,90.865 315.570,90.458 315.651 C 88.152 316.108,86.437 316.315,84.581 316.360 C 83.691 316.382,82.611 316.667,82.181 316.994 C 79.304 319.183,79.442 318.946,79.179 322.169 C 78.909 325.459,78.694 325.899,77.245 326.120 C 76.729 326.199,75.473 327.170,74.454 328.278 C 71.708 331.261,69.424 331.973,66.683 330.700 C 65.377 330.093,65.027 325.374,66.215 324.388 C 66.553 324.107,66.778 323.500,66.715 323.039 C 66.642 322.505,66.797 322.241,67.141 322.314 C 68.277 322.552,69.535 320.161,69.250 318.307 C 69.225 318.146,69.699 317.906,70.302 317.774 C 72.109 317.378,72.400 317.245,72.400 316.813 C 72.400 316.586,71.995 316.379,71.500 316.354 C 71.005 316.328,70.420 316.266,70.200 316.215 C 69.980 316.164,69.575 316.094,69.300 316.061 C 69.025 316.027,68.821 315.865,68.847 315.700 C 69.134 313.886,68.742 312.800,67.800 312.800 C 66.977 312.800,66.799 312.994,66.797 313.900 C 66.791 316.087,63.282 316.336,62.577 314.200 C 62.259 313.234,62.261 313.429,62.535 311.100 L 62.757 309.200 60.013 309.200 L 57.268 309.200 57.021 312.300 C 56.423 319.806,56.299 320.800,55.959 320.800 C 55.762 320.800,55.629 320.935,55.664 321.100 C 55.919 322.305,55.031 322.800,52.618 322.800 C 50.012 322.800,48.093 323.769,48.484 324.888 C 48.675 325.436,47.698 326.499,46.767 326.757 C 45.641 327.069,42.970 327.401,41.600 327.401 L 40.200 327.400 39.900 324.900 C 39.735 323.525,39.465 321.275,39.300 319.900 C 38.801 315.745,35.940 316.457,35.409 320.867 C 35.092 323.502,35.336 330.669,35.756 331.090 C 35.926 331.261,39.156 331.400,42.933 331.400 L 49.800 331.400 49.922 329.500 L 50.044 327.600 53.822 327.600 L 57.600 327.600 57.600 328.626 C 57.600 330.399,58.289 331.200,59.814 331.200 L 61.200 331.200 61.200 333.200 L 61.200 335.200 66.794 335.200 L 72.387 335.200 72.494 346.300 L 72.600 357.400 76.600 357.387 C 81.378 357.372,82.540 357.109,83.069 355.923 C 83.414 355.150,83.503 355.323,83.724 357.190 C 84.149 360.779,86.464 361.355,99.485 361.111 L 105.400 361.000 105.523 359.300 C 105.639 357.692,105.715 357.598,106.923 357.554 C 107.625 357.528,108.380 357.466,108.600 357.415 C 108.820 357.364,109.572 357.294,110.271 357.261 C 112.322 357.163,112.800 356.351,112.800 352.971 L 112.800 350.000 114.320 350.000 C 116.186 350.000,116.800 349.436,116.800 347.720 L 116.800 346.400 122.300 346.377 C 130.047 346.344,130.936 346.147,131.247 344.394 L 131.495 343.000 131.547 344.457 C 131.612 346.237,131.969 346.400,135.810 346.400 L 138.754 346.400 138.877 348.100 L 139.000 349.800 140.900 349.922 C 142.665 350.035,142.800 350.121,142.806 351.122 C 142.817 353.079,143.314 353.381,146.783 353.539 L 150.000 353.685 150.000 354.810 C 150.000 356.692,150.381 357.148,152.179 357.418 C 153.601 357.631,153.981 357.885,154.444 358.937 C 155.095 360.416,157.128 361.115,160.926 361.168 C 164.083 361.211,164.800 360.771,164.800 358.786 C 164.800 357.324,164.886 357.200,165.900 357.194 C 168.196 357.181,168.190 357.208,168.321 347.415 L 168.443 338.400 169.359 338.400 C 171.491 338.400,172.400 335.431,172.400 328.473 L 172.400 323.700 173.524 323.475 C 175.154 323.149,175.686 321.636,175.909 316.700 L 176.103 312.400 177.794 312.400 L 179.486 312.400 179.767 316.837 C 180.110 322.264,180.405 323.141,181.993 323.459 L 183.200 323.700 183.276 337.550 C 183.317 345.168,183.416 350.365,183.496 349.100 C 183.575 347.835,183.766 346.800,183.920 346.801 C 184.074 346.801,184.144 344.718,184.075 342.172 C 183.997 339.264,184.111 337.348,184.382 337.021 C 184.620 336.735,184.690 336.179,184.539 335.785 C 184.358 335.314,184.415 335.162,184.704 335.341 C 184.947 335.491,185.260 335.427,185.400 335.200 C 185.540 334.973,185.826 334.892,186.034 335.021 C 186.243 335.150,186.298 335.442,186.156 335.670 C 185.996 335.931,186.193 335.993,186.683 335.837 C 187.171 335.682,187.485 335.779,187.514 336.094 C 188.296 344.406,188.327 344.555,189.412 345.370 C 189.955 345.778,190.418 346.492,190.440 346.956 C 190.479 347.775,190.488 347.776,190.751 347.000 C 191.247 345.541,192.543 343.200,192.856 343.200 C 193.025 343.200,193.282 342.568,193.427 341.796 C 193.572 341.023,193.850 340.293,194.045 340.172 C 194.240 340.051,194.400 338.883,194.400 337.576 L 194.400 335.200 196.200 335.200 L 198.000 335.200 198.000 331.642 C 198.000 328.297,198.067 328.013,199.122 326.884 C 199.795 326.163,200.440 324.832,200.735 323.551 C 201.143 321.787,201.604 321.061,203.414 319.336 C 205.494 317.353,205.600 317.155,205.600 315.247 C 205.600 313.667,205.810 313.014,206.591 312.172 C 209.337 309.209,208.028 293.763,204.344 285.678 C 203.628 284.105,203.548 283.407,203.782 280.729 C 204.040 277.770,204.005 277.566,203.081 276.706 C 201.761 275.478,201.057 270.936,202.008 269.790 C 202.220 269.535,202.328 269.253,202.249 269.163 C 202.169 269.073,201.985 266.460,201.840 263.356 L 201.576 257.712 203.444 257.456 C 204.471 257.315,206.142 257.199,207.156 257.198 C 211.568 257.192,212.302 256.568,212.682 252.505 L 212.916 250.000 225.378 250.000 C 238.896 250.000,238.800 250.016,238.800 247.775 L 238.800 246.510 241.889 246.230 C 245.474 245.906,246.000 245.589,246.000 243.751 C 246.000 242.443,246.051 242.400,247.586 242.400 C 249.361 242.400,250.000 241.680,250.000 239.676 C 250.000 238.694,250.194 238.461,251.178 238.264 C 252.646 237.971,253.201 236.963,253.493 234.066 C 253.739 231.613,254.040 231.215,255.657 231.206 C 256.961 231.199,257.200 230.636,257.490 226.900 L 257.715 224.000 263.058 224.000 L 268.400 224.000 268.400 222.200 L 268.400 220.400 270.100 220.377 C 272.931 220.340,274.505 219.590,275.300 217.900 C 275.862 216.707,276.230 216.399,277.103 216.394 C 278.665 216.385,279.089 216.000,279.408 214.299 C 279.648 213.019,279.843 212.799,280.745 212.794 C 282.675 212.783,282.982 212.276,283.138 208.837 L 283.283 205.640 285.141 205.520 L 287.000 205.400 287.200 203.600 C 287.389 201.898,287.476 201.789,288.797 201.600 C 290.390 201.372,290.671 200.673,290.753 196.723 L 290.800 194.446 292.500 194.323 C 294.188 194.201,294.201 194.188,294.322 192.522 C 294.443 190.860,294.460 190.843,296.122 190.722 L 297.800 190.600 297.911 185.132 L 298.022 179.663 303.226 179.532 C 308.860 179.389,309.182 179.258,309.194 177.100 C 309.199 176.153,309.362 176.000,310.367 176.000 C 312.858 176.000,312.800 176.183,312.800 168.357 C 312.800 161.203,312.800 161.200,313.700 161.195 C 315.758 161.182,316.399 160.750,316.645 159.206 L 316.885 157.707 319.609 157.454 C 324.112 157.035,323.986 157.235,323.995 150.500 L 324.000 146.000 327.120 146.000 C 330.628 146.000,331.200 145.681,331.200 143.720 L 331.200 142.400 335.000 142.400 L 338.800 142.400 338.800 140.600 L 338.800 138.800 340.600 138.800 L 342.400 138.800 342.460 133.100 C 342.495 129.829,342.622 128.166,342.760 129.198 C 343.033 131.241,343.499 131.465,347.655 131.553 C 349.910 131.600,349.911 131.601,350.177 133.018 C 350.505 134.766,351.470 135.200,355.026 135.200 L 357.600 135.200 357.600 136.586 C 357.600 138.397,358.395 138.800,361.966 138.800 C 364.718 138.800,364.790 138.826,365.016 139.900 C 365.516 142.275,365.189 142.191,374.371 142.308 C 384.155 142.433,385.719 142.180,386.349 140.375 C 387.160 138.049,385.910 135.600,383.911 135.600 C 383.280 135.600,383.197 135.162,383.177 131.700 C 383.149 126.738,382.647 125.214,380.846 124.612 C 379.828 124.272,379.381 123.818,379.046 122.780 C 378.708 121.733,378.262 121.285,377.200 120.923 C 376.006 120.516,376.861 120.437,383.000 120.392 C 393.983 120.311,394.355 120.069,394.355 113.000 C 394.355 108.267,393.829 106.738,392.000 106.150 C 390.809 105.768,390.582 105.498,390.478 104.350 C 390.304 102.434,389.500 102.000,386.124 102.000 C 383.202 102.000,383.200 101.999,383.194 100.900 C 383.181 98.507,381.734 98.096,373.100 98.034 L 368.400 98.000 368.400 96.443 C 368.400 94.448,368.254 94.400,362.155 94.400 C 357.761 94.400,357.149 94.318,356.959 93.700 C 356.509 92.246,356.084 91.786,354.762 91.323 C 353.591 90.912,354.298 90.836,359.800 90.783 C 367.812 90.705,368.162 90.618,368.324 88.684 L 368.448 87.200 377.344 87.200 C 387.171 87.200,387.200 87.193,387.200 84.720 L 387.200 83.200 389.924 83.200 C 394.256 83.200,394.200 83.304,394.200 75.333 L 394.200 68.600 392.338 68.480 C 390.746 68.377,390.441 68.218,390.232 67.385 C 389.650 65.065,389.191 65.000,373.379 65.000 C 357.625 65.000,357.600 65.004,357.600 67.249 L 357.600 68.400 338.700 68.403 C 315.648 68.407,313.982 68.592,313.458 71.209 C 313.230 72.350,313.131 72.400,311.110 72.400 L 309.000 72.400 309.135 70.455 L 309.270 68.509 311.740 68.279 C 315.057 67.969,315.486 67.756,316.012 66.165 C 316.405 64.973,316.632 64.800,317.802 64.800 C 319.454 64.800,320.400 63.915,320.400 62.371 C 320.400 61.265,320.494 61.198,322.100 61.170 C 324.875 61.120,326.542 60.335,326.983 58.872 C 327.343 57.676,327.478 57.600,329.259 57.600 C 330.301 57.600,331.264 57.420,331.400 57.200 C 331.536 56.980,332.076 56.800,332.601 56.800 C 333.622 56.800,334.800 55.475,334.800 54.326 C 334.800 53.723,335.295 53.615,338.500 53.515 L 342.200 53.400 342.323 51.700 L 342.446 50.000 350.597 50.000 C 359.863 50.000,360.689 49.833,360.873 47.920 L 361.000 46.600 368.068 46.400 C 375.929 46.178,375.585 46.281,375.884 44.048 L 376.101 42.430 379.551 42.315 L 383.000 42.200 383.122 40.521 L 383.244 38.842 385.122 38.721 L 387.000 38.600 387.122 36.922 C 387.243 35.260,387.260 35.243,388.922 35.122 C 390.588 35.001,390.601 34.988,390.723 33.300 C 390.837 31.725,390.930 31.600,391.990 31.600 C 394.397 31.600,394.400 31.593,394.400 25.757 L 394.400 20.400 380.900 20.454 C 373.475 20.484,366.984 20.588,366.476 20.685 M374.400 120.117 C 375.117 120.242,374.976 120.306,373.900 120.346 C 372.606 120.393,372.400 120.279,372.400 119.524 C 372.400 118.743,372.455 118.718,372.900 119.295 C 373.175 119.652,373.850 120.022,374.400 120.117 M39.129 180.597 C 38.798 181.321,38.793 181.839,39.110 182.497 C 39.456 183.214,39.551 183.256,39.573 182.700 C 39.588 182.315,39.780 182.000,40.000 182.000 C 40.220 182.000,40.379 181.865,40.353 181.700 C 40.189 180.665,40.417 180.207,40.800 180.800 C 41.082 181.236,41.189 181.257,41.194 180.876 C 41.197 180.588,41.380 180.464,41.600 180.600 C 41.820 180.736,42.000 180.678,42.000 180.470 C 42.000 180.137,40.740 179.620,39.891 179.605 C 39.722 179.602,39.379 180.048,39.129 180.597 M35.772 183.506 C 35.521 183.679,35.463 184.213,35.632 184.800 C 35.812 185.425,35.935 185.540,35.960 185.108 C 35.983 184.714,36.448 184.303,37.038 184.155 C 37.805 183.962,37.936 183.805,37.538 183.553 C 36.878 183.135,36.334 183.120,35.772 183.506 M31.400 187.462 C 30.960 187.555,30.201 187.716,29.714 187.820 C 29.083 187.954,28.705 188.466,28.399 189.604 C 28.050 190.900,27.790 191.200,27.013 191.200 C 25.260 191.200,23.647 194.177,24.359 196.100 L 24.670 196.941 24.897 196.071 C 25.049 195.492,25.439 195.198,26.063 195.194 C 27.457 195.185,27.897 194.757,28.205 193.113 C 28.486 191.618,29.188 191.087,31.000 191.001 C 31.440 190.981,31.750 190.733,31.690 190.451 C 31.629 190.169,31.750 189.322,31.957 188.569 C 32.165 187.816,32.305 187.221,32.268 187.246 C 32.230 187.272,31.840 187.369,31.400 187.462 M22.742 198.191 C 22.637 198.296,22.112 198.449,21.576 198.531 C 21.039 198.613,20.618 198.887,20.640 199.140 C 20.662 199.393,20.707 200.061,20.740 200.624 C 20.807 201.763,21.600 201.580,21.600 200.425 C 21.600 200.025,21.905 199.451,22.277 199.149 C 22.649 198.847,22.829 198.808,22.676 199.063 C 22.467 199.412,22.636 199.413,23.365 199.069 C 23.897 198.818,24.246 198.475,24.142 198.307 C 23.932 197.967,23.040 197.893,22.742 198.191 M17.900 203.089 C 17.500 203.531,17.177 204.753,17.074 206.208 C 16.982 207.524,16.982 208.220,17.074 207.756 C 17.246 206.896,18.363 206.142,19.800 205.915 C 21.148 205.703,20.951 202.641,19.579 202.481 C 18.977 202.411,18.289 202.660,17.900 203.089 M42.043 206.917 C 41.792 207.168,40.825 207.739,39.894 208.186 C 35.636 210.233,37.454 216.886,42.244 216.784 C 44.235 216.741,47.408 213.455,47.275 211.573 C 47.083 208.869,46.861 208.441,45.271 207.718 C 44.462 207.350,43.507 206.917,43.149 206.755 C 42.791 206.594,42.293 206.667,42.043 206.917 M15.946 212.988 C 15.843 213.091,15.218 213.216,14.558 213.267 C 13.326 213.361,13.198 213.645,13.043 216.625 C 13.012 217.224,12.780 217.410,12.200 217.302 C 11.032 217.085,9.990 218.032,9.889 219.403 C 9.840 220.061,9.620 220.750,9.400 220.934 C 9.180 221.117,9.608 221.162,10.350 221.034 C 11.093 220.905,12.015 220.800,12.399 220.800 C 12.935 220.800,13.151 220.355,13.325 218.900 C 13.740 215.423,14.410 214.041,15.778 213.843 C 16.206 213.781,16.626 213.521,16.712 213.265 C 16.863 212.811,16.319 212.614,15.946 212.988 M56.800 228.751 C 56.800 229.384,56.532 230.124,56.204 230.396 C 55.203 231.227,55.963 231.654,57.935 231.369 C 60.316 231.025,60.800 230.616,60.800 228.951 L 60.800 227.600 58.800 227.600 C 56.863 227.600,56.800 227.636,56.800 228.751 M45.423 232.883 C 45.008 233.698,44.530 234.281,44.362 234.176 C 44.193 234.072,43.960 234.140,43.844 234.328 C 43.729 234.516,42.971 234.694,42.160 234.725 C 39.583 234.821,40.160 235.200,42.884 235.200 C 45.892 235.200,46.527 234.743,46.316 232.726 L 46.178 231.400 45.423 232.883 M31.644 235.119 C 31.400 235.200,31.200 235.761,31.200 236.366 C 31.200 237.484,30.296 238.220,28.600 238.483 C 27.981 238.579,27.771 238.968,27.673 240.203 C 27.604 241.081,27.379 241.971,27.173 242.180 C 26.968 242.389,26.800 242.864,26.800 243.237 C 26.800 243.937,25.074 244.616,24.382 244.189 C 24.158 244.050,24.000 244.839,24.000 246.100 C 24.000 249.193,23.441 249.767,20.412 249.785 C 17.643 249.802,16.800 249.180,16.800 247.124 C 16.800 246.119,16.660 246.000,15.480 246.000 C 13.822 246.000,13.200 245.390,13.200 243.764 C 13.200 242.627,13.057 242.468,11.900 242.308 C 11.185 242.209,10.330 242.054,10.000 241.964 C 9.585 241.851,9.441 242.047,9.534 242.600 C 9.818 244.299,10.632 245.381,11.900 245.744 C 13.022 246.065,13.200 246.293,13.200 247.409 C 13.200 248.953,13.703 249.435,15.700 249.809 C 16.924 250.038,17.200 250.260,17.200 251.022 C 17.200 252.258,18.622 253.200,20.489 253.200 C 22.163 253.200,23.600 252.108,23.600 250.835 C 23.600 250.254,23.986 250.005,25.205 249.799 C 27.239 249.455,27.600 248.766,27.600 245.226 L 27.600 242.400 28.724 242.400 C 30.303 242.400,31.135 241.626,31.278 240.023 C 31.383 238.841,31.586 238.598,32.716 238.308 C 33.898 238.003,34.800 236.839,34.800 235.618 C 34.800 235.261,32.370 234.877,31.644 235.119 M200.561 262.865 C 200.894 263.341,201.074 263.881,200.960 264.065 C 200.846 264.249,200.965 264.400,201.225 264.400 C 201.575 264.400,201.582 264.539,201.252 264.937 C 201.007 265.232,200.936 265.603,201.094 265.761 C 201.253 265.919,200.891 265.960,200.291 265.851 C 199.691 265.742,199.200 265.815,199.200 266.014 C 199.200 266.212,198.930 266.271,198.600 266.145 C 197.574 265.751,197.768 262.246,198.801 262.516 C 199.241 262.631,199.500 262.562,199.377 262.363 C 198.897 261.586,199.989 262.050,200.561 262.865 M203.018 269.062 C 203.422 269.358,203.899 269.600,204.076 269.600 C 204.254 269.600,204.400 269.870,204.400 270.200 C 204.400 270.530,204.549 270.800,204.732 270.800 C 204.914 270.800,205.049 271.205,205.032 271.700 C 205.006 272.427,205.244 272.624,206.269 272.723 C 207.575 272.850,209.066 274.446,208.593 275.211 C 208.461 275.425,208.543 275.600,208.776 275.600 C 209.009 275.600,209.200 274.880,209.200 274.000 L 209.200 272.400 207.422 272.400 L 205.644 272.400 205.522 270.515 L 205.400 268.629 203.841 268.577 C 202.443 268.530,202.358 268.580,203.018 269.062 M210.533 277.043 C 211.813 277.709,212.394 278.240,212.251 278.612 C 212.132 278.921,212.207 279.281,212.417 279.411 C 212.639 279.548,212.800 278.882,212.800 277.824 L 212.800 276.000 210.700 276.019 L 208.600 276.037 210.533 277.043 M212.927 280.152 C 212.787 280.399,212.821 280.465,213.003 280.299 C 213.186 280.134,213.696 280.314,214.136 280.699 C 214.577 281.085,214.807 281.177,214.648 280.905 C 214.454 280.572,214.559 280.486,214.967 280.643 C 215.301 280.771,215.555 280.994,215.530 281.138 C 215.435 281.699,216.494 283.989,216.770 283.818 C 217.207 283.549,219.786 286.032,219.794 286.729 C 219.797 287.060,220.340 287.506,221.000 287.719 C 222.353 288.157,223.316 288.817,223.026 289.108 C 222.065 290.068,224.164 291.619,226.335 291.554 C 228.887 291.478,230.216 291.991,230.600 293.200 C 230.932 294.247,231.600 294.230,231.600 293.174 C 231.600 291.521,230.866 290.800,229.186 290.800 C 227.699 290.800,227.600 290.727,227.600 289.629 C 227.600 288.076,226.652 287.200,224.971 287.200 C 223.799 287.200,223.600 287.064,223.600 286.262 C 223.600 284.538,220.088 282.696,218.462 283.567 C 217.429 284.119,216.898 283.458,216.730 281.412 C 216.596 279.791,213.684 278.826,212.927 280.152 M232.201 295.148 C 232.005 295.661,232.057 295.696,232.443 295.313 C 233.001 294.759,235.003 296.548,234.583 297.227 C 234.302 297.682,235.372 299.295,235.723 298.944 C 235.861 298.806,236.089 299.415,236.230 300.297 C 236.458 301.726,236.657 301.957,238.051 302.417 C 239.749 302.977,239.876 302.985,242.095 302.672 C 242.918 302.556,243.695 302.631,243.823 302.837 C 243.951 303.044,244.214 303.115,244.407 302.995 C 244.601 302.876,244.874 303.389,245.014 304.136 C 245.273 305.516,247.750 306.849,248.823 306.186 C 249.987 305.466,252.338 306.460,252.949 307.930 L 253.559 309.400 253.579 307.500 L 253.600 305.600 251.683 305.600 C 249.865 305.600,249.746 305.533,249.383 304.300 C 248.935 302.780,247.325 302.059,244.300 302.023 L 242.400 302.000 242.400 300.200 C 242.400 298.185,242.634 298.278,237.400 298.222 L 235.400 298.200 235.200 296.447 C 234.981 294.526,232.797 293.581,232.201 295.148 M258.662 309.700 C 258.764 309.865,259.207 310.000,259.647 310.000 C 260.087 310.000,260.336 310.180,260.200 310.400 C 260.064 310.620,260.132 310.800,260.351 310.800 C 260.570 310.800,260.806 311.371,260.875 312.069 C 260.945 312.777,261.265 313.410,261.600 313.500 C 262.015 313.611,262.054 313.557,261.728 313.324 C 261.468 313.139,261.198 312.180,261.128 311.193 C 261.005 309.475,260.947 309.400,259.738 309.400 C 259.044 309.400,258.560 309.535,258.662 309.700 M262.898 313.101 C 262.621 313.193,262.492 313.425,262.610 313.617 C 262.729 313.808,263.119 313.852,263.478 313.715 C 263.876 313.562,264.031 313.626,263.875 313.878 C 263.714 314.139,264.059 314.242,264.802 314.155 C 265.995 314.016,267.806 315.343,267.375 316.041 C 267.018 316.618,268.711 317.200,270.750 317.200 C 271.852 317.200,272.866 317.383,273.004 317.607 C 273.142 317.830,273.409 317.918,273.597 317.802 C 273.996 317.555,275.416 319.438,275.707 320.600 C 275.817 321.040,275.928 320.650,275.954 319.733 C 276.033 316.864,275.946 316.800,271.957 316.800 L 268.400 316.800 268.400 315.038 L 268.400 313.275 266.500 313.059 C 264.460 312.828,263.690 312.837,262.898 313.101 M64.829 317.269 C 65.761 318.688,64.521 320.812,62.900 320.573 C 62.625 320.533,62.130 320.478,61.800 320.450 C 61.355 320.413,61.200 319.893,61.200 318.438 L 61.200 316.476 62.900 316.698 C 63.835 316.820,64.703 317.077,64.829 317.269 M277.366 320.855 C 277.176 321.162,277.411 321.320,278.000 321.282 C 278.110 321.274,278.220 321.804,278.244 322.458 C 278.305 324.109,278.638 324.316,281.600 324.537 C 284.924 324.785,286.104 325.152,285.835 325.853 C 285.720 326.154,285.799 326.400,286.013 326.400 C 286.226 326.400,286.400 326.741,286.400 327.157 C 286.400 328.087,287.670 328.651,290.300 328.888 C 290.575 328.913,290.800 329.161,290.800 329.440 C 290.800 329.718,291.160 330.060,291.600 330.200 C 292.040 330.340,292.400 330.689,292.400 330.976 C 292.400 331.274,293.077 331.606,293.981 331.751 C 294.852 331.890,295.745 332.317,295.969 332.702 C 296.221 333.134,296.380 333.200,296.388 332.876 C 296.409 331.972,297.171 332.782,297.558 334.120 C 297.916 335.360,297.929 335.340,297.964 333.500 L 298.000 331.600 296.200 331.600 C 294.437 331.600,294.400 331.573,294.394 330.300 C 294.384 328.207,293.840 327.967,288.800 327.836 C 287.444 327.801,287.394 327.744,287.200 326.000 L 287.000 324.200 285.100 324.208 C 283.322 324.216,283.200 324.150,283.200 323.184 C 283.200 321.091,278.403 319.176,277.366 320.855 M92.552 321.182 C 93.260 321.451,93.633 321.969,93.814 322.934 C 94.054 324.213,94.191 324.318,95.885 324.508 C 96.883 324.621,97.833 324.930,97.997 325.196 C 98.161 325.461,98.752 325.706,99.309 325.739 C 99.867 325.773,100.239 325.936,100.136 326.103 C 100.033 326.269,100.231 326.514,100.575 326.646 C 100.919 326.778,101.200 327.120,101.200 327.407 C 101.200 327.813,102.952 327.958,109.130 328.064 C 118.154 328.219,117.924 328.144,122.385 332.343 C 123.586 333.474,124.891 334.502,125.285 334.627 C 126.287 334.945,126.176 336.279,125.100 336.846 C 124.605 337.106,124.110 337.443,124.000 337.594 C 123.523 338.249,120.863 338.800,118.176 338.800 C 115.132 338.800,114.337 339.525,116.226 340.578 C 117.895 341.510,118.554 343.724,117.600 345.200 C 117.387 345.530,117.209 345.637,117.206 345.438 C 117.203 345.239,116.844 345.398,116.409 345.791 C 115.975 346.185,115.689 346.620,115.774 346.758 C 116.226 347.489,113.389 349.563,112.794 348.937 C 112.257 348.371,111.633 345.580,111.892 344.905 C 112.072 344.435,111.990 344.359,111.575 344.615 C 111.266 344.806,110.696 344.986,110.307 345.014 C 109.296 345.089,109.271 345.148,109.050 348.000 C 108.940 349.421,108.657 350.648,108.422 350.726 C 108.187 350.804,108.097 351.033,108.221 351.234 C 108.345 351.435,108.246 351.600,108.000 351.600 C 107.754 351.600,107.682 351.825,107.841 352.100 C 107.999 352.375,107.979 352.465,107.797 352.299 C 107.614 352.134,107.180 352.251,106.832 352.559 C 106.485 352.868,105.055 353.230,103.656 353.364 C 100.752 353.642,100.405 353.786,100.387 354.724 C 100.349 356.802,96.800 356.991,96.800 354.914 C 96.800 354.606,96.665 354.436,96.500 354.538 C 96.335 354.640,96.200 353.653,96.200 352.344 L 96.200 349.965 94.143 349.367 L 92.086 348.768 91.383 345.785 C 90.772 343.190,90.601 342.866,90.065 343.301 C 89.548 343.720,89.492 343.689,89.713 343.100 C 90.019 342.281,89.597 342.189,88.799 342.900 C 88.322 343.325,88.318 343.296,88.768 342.700 C 89.060 342.315,89.534 342.000,89.822 342.000 C 90.110 342.000,90.455 341.657,90.588 341.239 C 90.855 340.398,93.059 339.200,94.339 339.200 C 95.104 339.200,95.255 335.991,94.526 335.206 C 94.238 334.896,88.495 334.689,87.450 334.952 C 85.823 335.360,86.526 338.371,88.254 338.394 C 88.833 338.402,90.000 340.166,90.000 341.033 C 90.000 341.496,89.762 341.631,89.200 341.484 C 88.760 341.369,88.400 341.438,88.400 341.637 C 88.400 342.594,87.127 341.831,86.503 340.500 C 85.641 338.663,82.800 337.970,82.800 339.596 C 82.800 340.060,82.548 340.927,82.240 341.523 C 81.932 342.119,81.617 342.965,81.540 343.403 C 81.322 344.644,78.800 345.562,78.800 344.400 C 78.800 344.180,78.549 344.000,78.243 344.000 C 77.419 344.000,77.140 342.985,76.905 339.139 C 76.628 334.608,76.882 333.692,78.614 332.968 L 80.000 332.389 80.000 329.044 C 80.000 325.406,80.227 324.958,82.208 324.692 C 83.083 324.575,83.594 324.158,84.148 323.105 C 85.284 320.947,89.436 319.997,92.552 321.182 M187.572 329.300 C 187.590 332.641,187.454 334.400,187.176 334.400 C 186.943 334.400,186.875 334.598,187.025 334.840 C 187.208 335.136,187.008 335.126,186.414 334.807 C 185.929 334.548,185.430 334.437,185.305 334.562 C 184.598 335.268,184.000 332.362,184.000 328.225 L 184.000 323.741 185.500 323.365 C 187.478 322.870,187.537 323.040,187.572 329.300 M39.922 328.538 C 39.839 329.388,39.559 329.839,39.053 329.935 C 38.633 330.015,38.413 329.903,38.550 329.680 C 38.806 329.267,37.689 328.604,37.011 328.766 C 36.797 328.817,36.920 328.531,37.283 328.130 C 38.480 326.809,40.067 327.055,39.922 328.538 M299.200 335.608 C 299.200 336.129,300.263 336.803,300.601 336.497 C 300.781 336.333,300.806 336.413,300.658 336.672 C 300.509 336.932,300.573 337.260,300.800 337.400 C 301.027 337.540,301.122 337.802,301.011 337.982 C 300.733 338.431,301.871 339.317,303.345 339.799 C 304.883 340.303,305.291 341.935,305.120 346.901 C 305.054 348.826,305.140 350.401,305.311 350.401 C 305.482 350.400,305.572 347.835,305.511 344.700 C 305.405 339.267,305.363 339.004,304.600 339.095 C 302.664 339.324,302.051 338.869,301.923 337.106 C 301.812 335.582,299.200 334.146,299.200 335.608 M100.910 340.500 C 101.533 343.155,101.551 343.200,101.987 343.200 C 102.221 343.200,102.400 342.245,102.400 341.000 C 102.400 338.955,102.334 338.800,101.456 338.800 C 100.549 338.800,100.527 338.867,100.910 340.500 M88.400 339.891 C 88.400 340.344,88.674 340.820,89.009 340.948 C 89.521 341.145,89.545 341.040,89.155 340.291 C 88.492 339.016,88.400 338.967,88.400 339.891 M112.300 342.033 C 111.509 342.900,111.393 343.825,112.027 344.217 C 112.262 344.362,112.370 344.700,112.268 344.968 C 112.124 345.343,112.395 345.357,113.444 345.029 C 114.193 344.794,114.634 344.545,114.424 344.475 C 114.193 344.398,114.225 343.945,114.505 343.330 C 115.276 341.638,113.575 340.637,112.300 342.033 M124.494 343.821 C 124.244 345.127,123.697 344.714,123.821 343.314 C 123.960 341.760,123.972 341.737,124.346 342.326 C 124.529 342.615,124.596 343.288,124.494 343.821 M97.910 346.223 C 97.787 346.346,97.782 346.811,97.899 347.257 C 98.061 347.876,98.191 347.942,98.449 347.534 C 99.096 346.514,98.665 345.468,97.910 346.223 M87.811 349.643 C 87.846 350.121,87.606 350.400,87.159 350.400 C 86.770 350.400,85.945 350.609,85.326 350.865 C 84.707 351.120,84.052 351.296,83.870 351.255 C 83.689 351.214,83.647 351.352,83.777 351.562 C 83.907 351.773,83.849 352.046,83.648 352.170 C 83.448 352.294,83.175 352.112,83.042 351.765 C 82.661 350.772,82.759 349.600,83.224 349.600 C 83.457 349.600,83.544 349.433,83.418 349.229 C 83.122 348.750,84.648 348.259,85.258 348.636 C 85.548 348.815,85.616 348.749,85.438 348.462 C 85.269 348.188,85.407 348.000,85.776 348.000 C 86.119 348.000,86.409 347.775,86.421 347.500 C 86.452 346.762,87.745 348.757,87.811 349.643 M306.800 350.622 C 306.800 350.966,306.980 351.136,307.200 351.000 C 307.420 350.864,307.600 350.954,307.600 351.200 C 307.600 351.446,307.780 351.536,308.000 351.400 C 308.393 351.157,308.562 351.918,308.421 353.300 C 308.382 353.685,308.541 354.023,308.775 354.050 C 309.324 354.115,309.568 354.169,310.917 354.527 C 311.532 354.690,312.195 355.224,312.392 355.712 C 312.857 356.867,312.935 355.468,312.539 353.072 C 312.174 350.864,306.800 348.570,306.800 350.622 M183.447 355.600 C 183.024 356.665,184.207 359.762,185.241 360.294 C 187.011 361.206,187.601 360.957,187.594 359.300 C 187.585 357.197,187.410 357.010,185.114 356.660 C 184.642 356.588,184.127 356.185,183.971 355.764 C 183.739 355.142,183.642 355.112,183.447 355.600 M312.800 357.958 C 312.800 358.179,313.090 358.522,313.444 358.721 C 314.035 359.052,314.035 359.101,313.444 359.328 C 313.090 359.464,312.800 359.771,312.800 360.011 C 312.800 360.251,312.981 360.335,313.203 360.198 C 313.425 360.061,313.875 360.218,314.203 360.546 C 314.913 361.256,314.994 361.767,314.332 361.358 C 314.011 361.160,313.950 361.293,314.138 361.783 C 314.357 362.354,314.251 362.454,313.606 362.286 C 312.913 362.104,312.800 362.268,312.800 363.459 L 312.800 364.844 314.700 364.722 L 316.600 364.600 316.600 361.200 L 316.600 357.800 314.700 357.678 C 313.613 357.608,312.800 357.728,312.800 357.958 M204.717 361.800 C 204.062 364.093,203.776 364.331,201.680 364.331 C 197.255 364.331,192.683 364.533,193.673 364.684 C 194.479 364.807,194.812 365.143,195.006 366.027 C 195.312 367.422,196.232 368.000,198.141 368.000 C 200.181 368.000,200.710 367.684,201.212 366.165 L 201.662 364.800 204.334 364.800 C 205.803 364.800,207.555 364.642,208.227 364.450 C 209.441 364.101,209.450 364.110,209.539 365.750 C 209.641 367.618,210.389 368.400,212.076 368.400 C 213.034 368.400,213.201 368.563,213.206 369.500 C 213.209 370.105,213.368 370.845,213.557 371.145 C 214.189 372.141,220.800 372.900,220.800 371.976 C 220.800 371.743,220.622 371.663,220.405 371.797 C 219.787 372.179,218.412 370.657,218.315 369.484 C 218.247 368.659,217.961 368.369,217.014 368.167 C 216.346 368.024,215.575 367.726,215.300 367.505 C 215.025 367.283,214.793 367.259,214.784 367.451 C 214.776 367.643,214.507 367.196,214.186 366.459 C 213.866 365.721,213.697 364.967,213.811 364.783 C 214.106 364.304,211.943 362.400,211.104 362.400 C 210.717 362.400,210.400 362.117,210.400 361.771 C 210.400 359.347,205.411 359.373,204.717 361.800 M187.246 363.300 L 187.200 364.800 189.100 364.759 C 190.922 364.720,190.945 364.705,189.663 364.402 C 188.137 364.041,187.756 363.726,187.485 362.600 C 187.377 362.148,187.273 362.453,187.246 363.300 M312.122 367.178 C 312.010 367.605,311.532 368.031,311.059 368.123 C 310.487 368.235,310.634 368.309,311.500 368.346 C 312.635 368.393,312.800 368.273,312.800 367.400 C 312.800 366.211,312.408 366.082,312.122 367.178 M297.291 368.324 C 296.887 368.590,296.878 369.075,297.247 370.677 C 297.730 372.767,297.494 374.800,296.769 374.800 C 296.540 374.800,296.482 374.575,296.641 374.300 C 296.808 374.010,296.776 373.940,296.564 374.133 C 296.364 374.317,296.200 374.662,296.200 374.900 C 296.200 375.139,295.778 375.365,295.263 375.403 C 294.184 375.482,293.615 376.207,293.606 377.513 C 293.599 378.600,293.304 378.734,289.968 379.166 L 287.400 379.499 290.900 379.549 L 294.400 379.600 294.400 377.800 L 294.400 376.000 296.200 376.000 L 298.000 376.000 298.001 374.100 L 298.001 372.200 302.301 372.181 C 308.036 372.157,308.641 371.974,308.981 370.163 C 309.302 368.450,309.341 368.507,307.603 368.200 C 305.379 367.809,303.365 368.319,302.873 369.399 C 302.395 370.448,300.280 369.977,300.689 368.912 C 300.805 368.610,300.581 368.398,300.143 368.395 C 299.734 368.392,299.040 368.299,298.600 368.189 C 298.160 368.079,297.571 368.140,297.291 368.324 M272.000 371.773 C 272.000 372.338,271.809 372.800,271.576 372.800 C 271.343 372.800,271.257 372.968,271.384 373.174 C 271.511 373.380,271.154 374.010,270.589 374.574 C 269.492 375.672,268.963 375.917,269.453 375.100 C 269.686 374.713,269.623 374.705,269.177 375.064 C 268.215 375.837,255.739 375.796,254.960 375.017 C 254.137 374.194,253.510 374.235,253.675 375.100 C 253.789 375.695,254.355 375.817,257.463 375.914 L 261.116 376.029 261.380 377.433 C 261.988 380.674,268.400 380.229,268.400 376.945 C 268.400 376.154,268.631 376.029,270.300 375.922 L 272.200 375.800 272.323 374.100 L 272.446 372.400 274.200 372.400 L 275.954 372.400 276.077 374.100 L 276.200 375.800 278.073 375.921 C 279.784 376.031,279.968 376.144,280.205 377.224 C 280.541 378.753,281.438 379.200,284.502 379.366 C 285.876 379.440,286.415 379.423,285.700 379.327 C 284.541 379.171,284.351 378.959,283.952 377.376 L 283.505 375.600 280.653 375.553 C 279.084 375.527,277.684 375.520,277.543 375.538 C 277.401 375.557,277.069 374.993,276.805 374.286 C 276.541 373.579,276.196 372.655,276.037 372.234 C 275.873 371.796,275.331 371.443,274.775 371.410 C 274.239 371.378,273.395 371.215,272.900 371.049 C 272.122 370.787,272.000 370.885,272.000 371.773 M238.583 371.573 C 238.710 371.778,238.316 372.021,237.707 372.113 C 236.673 372.269,236.686 372.284,237.906 372.340 C 239.138 372.397,239.199 372.470,238.992 373.643 C 238.620 375.759,239.170 376.000,244.369 376.000 C 249.534 376.000,250.000 375.811,250.000 373.720 L 250.000 372.400 252.100 372.372 C 254.528 372.339,253.651 371.676,251.116 371.628 C 249.726 371.602,249.602 371.700,249.158 373.181 C 248.651 374.876,248.192 375.103,245.000 375.239 C 242.594 375.341,240.564 374.509,240.654 373.457 C 240.683 373.109,240.368 372.717,239.954 372.585 C 239.539 372.454,239.200 372.088,239.200 371.773 C 239.200 371.458,239.009 371.200,238.776 371.200 C 238.543 371.200,238.456 371.368,238.583 371.573 M230.753 372.300 C 230.727 372.465,230.727 372.735,230.753 372.900 C 230.779 373.065,230.601 373.200,230.357 373.200 C 230.103 373.200,230.027 373.493,230.178 373.888 C 230.324 374.266,230.319 374.452,230.169 374.302 C 230.018 374.151,229.513 374.238,229.047 374.495 C 227.086 375.575,221.686 375.889,221.323 374.943 C 221.139 374.465,221.020 374.444,220.771 374.847 C 220.161 375.834,220.879 376.000,225.744 376.000 C 231.233 376.000,231.600 375.845,231.600 373.520 C 231.600 372.266,230.914 371.278,230.753 372.300 " stroke="none" fill="#31251f" fill-rule="evenodd"></path><path id="path2" d="M81.800 173.042 C 77.760 173.450,72.032 174.554,69.270 175.455 C 67.604 175.999,64.970 176.687,63.417 176.984 C 61.864 177.281,59.515 178.086,58.197 178.773 C 56.879 179.460,54.720 180.298,53.400 180.635 C 52.080 180.972,50.325 181.424,49.500 181.640 C 48.675 181.855,48.000 182.273,48.000 182.569 C 48.000 183.178,46.315 184.400,45.476 184.400 C 44.770 184.400,43.724 185.574,43.541 186.571 C 43.430 187.178,42.761 187.479,40.400 187.983 C 36.926 188.726,36.400 188.986,36.400 189.962 C 36.400 190.892,35.261 191.891,34.003 192.064 C 33.254 192.166,32.954 192.496,32.801 193.386 C 32.660 194.207,32.093 194.910,30.955 195.674 C 29.385 196.728,29.292 196.909,28.827 199.796 C 28.363 202.668,28.275 202.842,26.998 203.375 C 25.926 203.823,25.510 204.345,24.934 205.968 C 24.461 207.298,23.984 208.000,23.552 208.000 C 21.808 208.000,20.975 212.225,22.225 214.731 C 23.097 216.479,23.273 216.536,27.439 216.450 C 31.815 216.358,33.533 216.655,32.642 217.347 C 32.121 217.751,31.831 218.979,31.956 220.251 C 31.980 220.499,32.855 221.071,33.900 221.522 C 36.019 222.438,37.417 223.593,37.776 224.726 C 38.548 227.158,49.735 227.465,52.082 225.118 C 55.231 221.969,74.081 221.901,77.000 225.028 C 77.440 225.500,78.669 226.202,79.731 226.588 C 80.797 226.975,82.231 227.916,82.931 228.688 C 83.629 229.457,84.831 230.587,85.602 231.199 L 87.005 232.313 89.452 230.056 C 91.668 228.014,93.199 225.800,93.200 224.639 C 93.201 224.203,93.867 222.856,98.065 214.800 C 99.269 212.490,100.494 209.700,100.789 208.600 C 101.083 207.500,101.453 206.420,101.610 206.200 C 102.262 205.286,102.319 201.784,101.703 200.400 C 100.941 198.685,100.830 191.021,101.531 188.559 C 101.872 187.363,101.882 186.582,101.568 185.681 C 101.148 184.475,101.268 179.933,101.810 176.554 C 102.299 173.505,101.166 173.115,91.463 172.987 C 87.029 172.928,82.680 172.952,81.800 173.042 M98.779 175.375 C 99.510 176.255,99.745 190.591,99.066 192.850 C 98.725 193.985,98.659 195.022,98.878 195.800 C 100.171 200.392,99.425 208.436,97.588 209.723 C 96.744 210.314,94.810 214.202,94.804 215.319 C 94.802 215.714,94.300 216.324,93.688 216.675 C 93.077 217.026,92.132 217.913,91.588 218.646 C 91.045 219.378,90.403 219.983,90.161 219.989 C 89.920 219.995,89.074 220.630,88.281 221.400 C 86.633 223.001,83.917 223.386,83.010 222.147 C 82.516 221.471,79.775 220.865,77.022 220.824 C 75.901 220.807,75.138 220.507,74.388 219.788 C 72.363 217.848,61.219 217.075,58.918 218.715 C 57.752 219.547,57.268 219.618,53.518 219.514 L 49.400 219.400 49.271 218.270 C 49.199 217.648,49.707 215.493,50.398 213.481 C 51.364 210.670,51.710 208.846,51.893 205.612 L 52.132 201.403 53.678 199.825 C 55.188 198.285,55.207 198.229,54.479 197.501 C 53.530 196.552,50.286 197.215,48.951 198.631 C 48.483 199.127,47.371 199.905,46.478 200.360 C 45.585 200.816,44.739 201.375,44.599 201.602 C 44.458 201.829,43.501 202.446,42.472 202.972 C 41.442 203.498,40.203 204.305,39.717 204.765 C 39.231 205.224,38.646 205.600,38.417 205.600 C 38.188 205.600,38.000 205.768,38.000 205.973 C 38.000 206.178,37.659 206.454,37.243 206.586 C 36.827 206.718,36.282 207.316,36.032 207.913 C 35.481 209.234,31.539 212.000,30.208 212.000 C 29.933 212.000,29.254 212.357,28.698 212.794 C 25.848 215.036,25.970 208.468,28.847 204.800 C 29.450 204.030,30.067 202.725,30.217 201.900 C 30.366 201.075,30.613 200.400,30.765 200.400 C 30.916 200.400,31.544 199.604,32.158 198.631 C 32.773 197.659,33.934 196.230,34.738 195.458 C 35.542 194.685,36.650 193.580,37.200 193.001 C 38.903 191.210,41.641 189.200,42.378 189.200 C 42.764 189.200,43.845 188.615,44.779 187.900 C 49.416 184.352,52.896 182.424,56.200 181.572 C 57.300 181.289,58.830 180.646,59.600 180.143 C 60.893 179.300,63.297 178.660,71.200 177.059 C 72.850 176.724,75.640 176.100,77.400 175.672 C 81.615 174.647,97.986 174.419,98.779 175.375 M46.681 205.295 C 48.699 206.189,49.001 206.750,48.984 209.572 C 48.959 213.902,47.537 216.328,43.904 218.240 C 41.698 219.400,35.600 217.872,35.600 216.158 C 35.600 215.660,35.420 214.778,35.199 214.198 C 34.896 213.402,34.937 213.006,35.367 212.576 C 35.679 212.264,36.063 211.425,36.219 210.712 C 36.494 209.461,38.724 206.800,39.498 206.800 C 39.706 206.800,40.399 206.350,41.038 205.800 C 42.351 204.671,44.780 204.454,46.681 205.295 M48.340 220.354 C 49.071 220.818,46.272 221.340,45.083 220.962 C 44.224 220.689,44.221 220.673,45.000 220.369 C 46.084 219.945,47.683 219.938,48.340 220.354 M219.600 298.367 C 219.600 298.789,220.208 300.274,220.951 301.667 C 223.878 307.154,224.948 309.005,225.264 309.132 C 225.445 309.205,225.049 310.057,224.382 311.026 C 222.694 313.479,222.989 316.005,225.250 318.454 C 226.102 319.378,226.800 320.266,226.800 320.429 C 226.800 320.591,227.416 321.462,228.169 322.363 C 228.923 323.265,229.736 324.602,229.978 325.334 C 230.396 326.599,233.192 328.400,234.740 328.400 C 235.006 328.400,236.134 329.120,237.248 330.000 C 238.361 330.880,239.428 331.600,239.618 331.600 C 239.928 331.600,243.935 334.223,245.038 335.148 C 245.278 335.350,246.034 335.804,246.717 336.157 C 247.400 336.510,248.425 337.411,248.995 338.158 C 249.711 339.096,250.489 339.603,251.510 339.794 C 252.404 339.962,253.653 340.684,254.670 341.622 C 255.596 342.475,256.858 343.286,257.476 343.424 C 258.094 343.563,259.320 343.917,260.200 344.212 C 261.080 344.507,262.484 344.860,263.319 344.996 C 264.155 345.132,265.738 345.774,266.837 346.422 C 267.936 347.070,269.283 347.600,269.830 347.600 C 270.378 347.600,271.472 347.870,272.262 348.200 C 273.051 348.530,274.291 348.800,275.016 348.800 C 276.540 348.800,277.600 349.138,277.600 349.625 C 277.600 350.639,279.801 352.062,281.722 352.289 C 283.346 352.481,284.097 352.841,285.424 354.065 C 286.904 355.429,287.318 355.600,289.139 355.600 C 290.266 355.600,291.976 355.811,292.938 356.068 C 295.288 356.696,298.296 355.929,298.478 354.654 C 298.578 353.955,298.310 353.727,297.000 353.400 C 296.014 353.153,295.259 352.679,295.032 352.163 L 294.665 351.326 292.750 352.135 C 290.540 353.069,289.351 352.777,288.442 351.079 C 287.306 348.955,289.187 348.212,293.287 349.165 C 294.533 349.454,294.810 349.398,294.994 348.818 C 295.115 348.438,295.644 347.723,296.169 347.229 C 297.051 346.400,297.080 346.251,296.554 345.266 C 296.240 344.680,295.805 343.688,295.587 343.061 C 295.369 342.435,294.844 341.832,294.420 341.721 C 293.997 341.610,293.289 340.752,292.848 339.813 C 292.352 338.757,291.488 337.777,290.583 337.243 C 289.778 336.768,289.029 336.031,288.917 335.605 C 288.727 334.876,285.909 333.200,284.875 333.200 C 284.615 333.200,283.722 332.585,282.890 331.834 C 282.059 331.083,280.168 329.984,278.689 329.391 C 277.210 328.799,276.000 328.179,276.000 328.012 C 276.000 327.846,274.875 327.215,273.500 326.610 C 272.125 326.006,270.370 325.026,269.600 324.434 C 268.830 323.841,267.570 323.125,266.800 322.843 C 264.745 322.089,263.096 321.174,262.284 320.337 C 261.891 319.932,261.226 319.600,260.808 319.600 C 260.390 319.600,259.949 319.440,259.828 319.245 C 259.707 319.050,258.997 318.776,258.248 318.635 C 257.500 318.495,256.103 317.756,255.144 316.994 C 254.185 316.232,253.255 315.606,253.078 315.604 C 252.297 315.594,249.320 313.943,248.512 313.071 C 248.018 312.538,246.583 311.820,245.280 311.455 C 243.881 311.062,242.546 310.375,241.968 309.750 C 241.436 309.175,240.280 308.390,239.400 308.008 C 238.520 307.625,237.260 306.763,236.600 306.092 C 235.940 305.421,234.428 304.556,233.239 304.170 C 232.051 303.784,230.475 302.882,229.737 302.165 C 229.000 301.449,227.902 300.754,227.298 300.621 C 226.665 300.482,225.797 299.790,225.248 298.990 C 224.084 297.290,219.600 296.795,219.600 298.367 M227.224 329.954 C 226.383 331.527,226.431 331.622,230.172 335.749 C 231.580 337.302,234.890 338.470,235.670 337.690 C 236.948 336.412,236.251 334.167,234.311 333.309 C 233.630 333.008,233.134 332.410,232.987 331.714 C 232.553 329.656,232.234 329.406,229.883 329.281 C 227.994 329.180,227.583 329.284,227.224 329.954 M263.925 334.409 C 265.223 335.036,265.600 335.442,265.600 336.209 C 265.600 337.123,265.747 337.201,267.500 337.209 C 269.724 337.219,272.549 338.384,273.173 339.549 C 273.433 340.036,274.210 340.478,275.097 340.645 C 277.304 341.059,278.968 342.213,279.202 343.494 C 279.399 344.572,279.487 344.605,282.602 344.802 C 286.299 345.035,287.600 345.607,287.600 347.000 C 287.600 349.842,279.795 349.542,278.400 346.646 C 277.919 345.646,277.523 345.379,276.400 345.296 C 272.958 345.040,272.412 344.811,271.694 343.319 C 271.115 342.116,270.685 341.797,269.100 341.400 C 266.721 340.804,265.600 339.816,265.600 338.318 L 265.600 337.160 263.272 337.424 C 260.596 337.726,259.600 337.133,259.600 335.238 C 259.600 333.318,261.079 333.034,263.925 334.409 " stroke="none" fill="#8d857c" fill-rule="evenodd"></path><path id="path3" d="M78.000 170.476 C 76.085 170.684,73.835 171.211,72.850 171.683 C 71.887 172.143,70.087 172.746,68.850 173.022 C 63.323 174.256,60.289 175.352,55.400 177.880 C 54.058 178.574,45.951 180.085,44.400 179.929 C 43.850 179.874,43.147 179.986,42.838 180.177 C 42.428 180.430,42.355 180.372,42.568 179.962 C 42.728 179.653,42.603 179.712,42.290 180.094 C 41.977 180.475,41.604 180.670,41.460 180.527 C 41.317 180.384,41.197 180.522,41.194 180.833 C 41.189 181.300,41.119 181.294,40.800 180.800 C 40.417 180.207,40.189 180.665,40.353 181.700 C 40.379 181.865,40.220 182.000,40.000 182.000 C 39.780 182.000,39.600 182.255,39.600 182.567 C 39.600 182.879,38.790 183.443,37.800 183.821 C 36.728 184.231,35.989 184.770,35.972 185.154 C 35.951 185.645,35.861 185.607,35.600 185.000 C 35.324 184.358,35.251 184.497,35.228 185.700 C 35.201 187.137,35.142 187.200,33.824 187.200 C 32.227 187.200,32.011 187.448,31.828 189.492 C 31.725 190.640,31.514 191.005,30.946 191.020 C 29.219 191.065,28.484 191.626,28.205 193.113 C 27.897 194.757,27.457 195.185,26.063 195.194 C 25.466 195.198,25.049 195.490,24.917 195.996 C 24.803 196.433,24.552 196.694,24.360 196.575 C 24.168 196.457,24.071 196.872,24.144 197.499 C 24.246 198.376,24.059 198.742,23.338 199.082 C 22.634 199.415,22.468 199.410,22.676 199.063 C 22.829 198.808,22.649 198.847,22.277 199.149 C 21.905 199.451,21.600 200.025,21.600 200.425 C 21.600 201.318,20.944 201.792,20.664 201.102 C 20.552 200.826,20.491 201.764,20.530 203.187 C 20.597 205.648,20.551 205.785,19.600 205.987 C 17.428 206.449,17.175 206.859,16.879 210.390 C 16.635 213.309,16.500 213.740,15.800 213.841 C 15.032 213.951,13.912 215.219,13.757 216.154 C 13.716 216.399,13.544 217.138,13.374 217.796 C 13.075 218.952,13.089 218.968,13.792 218.265 C 14.197 217.860,14.853 217.625,15.271 217.735 C 16.022 217.931,22.152 217.000,22.818 216.589 C 23.012 216.469,22.817 215.742,22.385 214.973 C 20.958 212.432,21.699 208.000,23.552 208.000 C 23.984 208.000,24.461 207.298,24.934 205.968 C 25.510 204.345,25.926 203.823,26.998 203.375 C 28.275 202.842,28.363 202.668,28.827 199.796 C 29.292 196.909,29.385 196.728,30.955 195.674 C 32.093 194.910,32.660 194.207,32.801 193.386 C 32.954 192.496,33.254 192.166,34.003 192.064 C 35.261 191.891,36.400 190.892,36.400 189.962 C 36.400 188.986,36.926 188.726,40.400 187.983 C 42.761 187.479,43.430 187.178,43.541 186.571 C 43.724 185.574,44.770 184.400,45.476 184.400 C 46.315 184.400,48.000 183.178,48.000 182.569 C 48.000 182.273,48.675 181.855,49.500 181.640 C 50.325 181.424,52.080 180.972,53.400 180.635 C 54.720 180.298,56.879 179.460,58.197 178.773 C 59.515 178.086,61.864 177.281,63.417 176.984 C 64.970 176.687,67.592 176.003,69.243 175.464 C 77.427 172.792,97.743 171.818,100.737 173.954 C 101.986 174.844,102.056 175.016,101.810 176.554 C 101.268 179.933,101.148 184.475,101.568 185.681 C 101.882 186.582,101.872 187.363,101.531 188.559 C 100.830 191.021,100.941 198.685,101.703 200.400 C 102.319 201.784,102.262 205.286,101.610 206.200 C 101.453 206.420,101.083 207.500,100.789 208.600 C 100.494 209.700,99.269 212.490,98.065 214.800 C 93.867 222.856,93.201 224.203,93.200 224.639 C 93.199 225.800,91.668 228.014,89.452 230.056 L 87.005 232.313 85.602 231.199 C 84.831 230.587,83.629 229.457,82.931 228.688 C 82.231 227.916,80.797 226.975,79.731 226.588 C 78.669 226.202,77.440 225.500,77.000 225.028 C 74.081 221.901,55.231 221.969,52.082 225.118 C 49.916 227.284,39.366 227.226,37.906 225.040 C 37.744 224.798,37.609 225.441,37.606 226.469 C 37.600 228.273,37.548 228.355,36.100 228.828 C 34.146 229.467,32.800 230.932,32.800 232.421 C 32.800 233.069,32.788 233.735,32.774 233.900 C 32.759 234.065,32.354 234.422,31.874 234.692 C 31.161 235.094,32.034 235.148,36.600 234.987 C 43.603 234.739,43.303 234.767,43.900 234.296 C 44.175 234.080,44.408 234.059,44.418 234.251 C 44.427 234.443,44.792 233.925,45.227 233.100 C 46.103 231.442,45.339 231.608,52.800 231.454 C 55.692 231.394,56.800 230.614,56.800 228.637 L 56.800 227.600 65.000 227.600 C 69.510 227.600,73.179 227.735,73.153 227.900 C 72.862 229.739,74.293 230.808,77.508 231.154 C 79.383 231.356,79.812 231.543,79.911 232.200 C 80.283 234.676,80.375 234.800,81.820 234.800 C 83.238 234.800,83.337 234.906,83.774 236.900 C 84.265 239.138,86.810 238.483,88.832 235.600 C 89.958 233.996,90.788 233.200,91.335 233.200 C 93.068 233.200,96.400 229.052,96.400 226.895 C 96.400 224.566,97.677 220.764,99.034 219.054 C 100.113 217.695,102.260 213.058,103.876 208.600 C 105.055 205.348,105.389 199.791,104.472 198.686 C 103.773 197.845,103.738 192.875,104.409 189.899 C 104.835 188.011,104.834 187.209,104.405 185.421 C 103.890 183.275,103.982 180.281,104.737 174.660 C 105.110 171.883,104.880 171.644,100.868 170.636 C 97.994 169.914,84.074 169.817,78.000 170.476 M41.038 205.800 C 40.399 206.350,39.706 206.800,39.498 206.800 C 38.724 206.800,36.494 209.461,36.219 210.712 C 36.063 211.425,35.679 212.264,35.367 212.576 C 34.937 213.006,34.896 213.402,35.199 214.198 C 35.420 214.778,35.600 215.660,35.600 216.158 C 35.600 217.872,41.698 219.400,43.904 218.240 C 45.698 217.296,48.337 214.584,48.664 213.350 C 49.216 211.265,49.055 206.998,48.400 206.368 C 46.499 204.539,42.833 204.257,41.038 205.800 M45.271 207.718 C 49.075 209.447,46.657 216.689,42.244 216.784 C 37.454 216.886,35.636 210.233,39.894 208.186 C 40.825 207.739,41.792 207.168,42.043 206.917 C 42.293 206.667,42.791 206.594,43.149 206.755 C 43.507 206.917,44.462 207.350,45.271 207.718 M25.422 216.764 C 25.146 217.211,28.331 218.800,29.503 218.800 C 29.970 218.800,30.464 218.980,30.600 219.200 C 31.094 220.000,32.000 219.604,32.000 218.587 C 32.000 218.009,32.288 217.465,32.671 217.317 C 33.271 217.087,33.260 217.028,32.571 216.758 C 31.467 216.326,25.690 216.330,25.422 216.764 M27.423 238.900 C 27.318 239.395,27.178 240.152,27.114 240.581 C 27.030 241.140,26.485 241.487,25.198 241.801 C 23.202 242.287,23.063 242.731,23.629 246.800 L 23.880 248.600 23.940 246.276 C 23.975 244.918,24.159 244.051,24.382 244.189 C 25.074 244.616,26.800 243.937,26.800 243.237 C 26.800 242.864,26.968 242.389,27.173 242.180 C 27.379 241.971,27.604 241.081,27.673 240.202 C 27.785 238.789,27.940 238.574,29.000 238.349 L 30.200 238.095 28.908 238.047 C 27.872 238.009,27.577 238.178,27.423 238.900 M16.893 247.200 C 16.893 247.970,16.975 248.285,17.076 247.900 C 17.176 247.515,17.176 246.885,17.076 246.500 C 16.975 246.115,16.893 246.430,16.893 247.200 M19.505 249.883 C 20.002 249.979,20.722 249.975,21.105 249.875 C 21.487 249.775,21.080 249.696,20.200 249.701 C 19.320 249.705,19.007 249.787,19.505 249.883 M199.377 262.363 C 199.500 262.562,199.241 262.631,198.801 262.516 C 197.768 262.246,197.574 265.751,198.600 266.145 C 198.930 266.271,199.200 266.212,199.200 266.014 C 199.200 265.815,199.691 265.742,200.291 265.851 C 200.891 265.960,201.253 265.919,201.094 265.761 C 200.936 265.603,201.007 265.232,201.252 264.937 C 201.582 264.539,201.575 264.400,201.225 264.400 C 200.965 264.400,200.846 264.249,200.960 264.065 C 201.218 263.647,200.097 262.000,199.554 262.000 C 199.333 262.000,199.254 262.163,199.377 262.363 M202.123 268.944 C 202.241 269.251,202.178 269.662,201.982 269.858 C 201.036 270.804,201.790 275.505,203.081 276.706 C 204.005 277.566,204.040 277.770,203.782 280.729 C 203.548 283.407,203.628 284.105,204.344 285.678 C 208.028 293.763,209.337 309.209,206.591 312.172 C 205.810 313.014,205.600 313.667,205.600 315.247 C 205.600 317.155,205.494 317.353,203.414 319.336 C 201.604 321.061,201.143 321.787,200.735 323.551 C 200.440 324.832,199.795 326.163,199.122 326.884 C 198.067 328.013,198.000 328.297,198.000 331.642 L 198.000 335.200 196.200 335.200 L 194.400 335.200 194.400 337.576 C 194.400 338.883,194.240 340.051,194.045 340.172 C 193.850 340.293,193.572 341.023,193.427 341.796 C 193.282 342.568,193.025 343.200,192.856 343.200 C 192.543 343.200,191.247 345.541,190.751 347.000 C 190.488 347.776,190.479 347.775,190.440 346.956 C 190.418 346.492,189.955 345.778,189.412 345.370 C 188.327 344.555,188.296 344.406,187.514 336.094 C 187.485 335.779,187.171 335.682,186.683 335.837 C 186.193 335.993,185.996 335.931,186.156 335.670 C 186.298 335.442,186.243 335.150,186.034 335.021 C 185.826 334.892,185.540 334.973,185.400 335.200 C 185.260 335.427,184.947 335.491,184.704 335.341 C 184.415 335.162,184.358 335.314,184.539 335.785 C 184.690 336.179,184.620 336.735,184.382 337.021 C 184.111 337.348,183.997 339.264,184.075 342.172 C 184.144 344.718,184.092 346.801,183.959 346.801 C 183.399 346.799,183.212 353.512,183.730 355.011 C 184.233 356.462,184.539 356.670,186.500 356.891 C 187.416 356.995,187.594 357.673,187.515 360.750 C 187.427 364.145,187.900 364.520,192.200 364.473 C 204.616 364.339,203.951 364.481,204.717 361.800 C 205.411 359.373,210.400 359.347,210.400 361.771 C 210.400 362.117,210.717 362.400,211.104 362.400 C 211.943 362.400,214.106 364.304,213.811 364.783 C 213.697 364.967,213.866 365.721,214.186 366.459 C 214.507 367.196,214.776 367.643,214.784 367.451 C 214.793 367.259,215.025 367.283,215.300 367.505 C 215.575 367.726,216.346 368.024,217.014 368.167 C 217.961 368.369,218.247 368.659,218.315 369.484 C 218.416 370.703,219.797 372.173,220.457 371.765 C 220.728 371.598,220.826 371.708,220.706 372.044 C 220.597 372.350,220.682 372.937,220.894 373.348 C 221.165 373.874,221.149 374.016,220.840 373.825 C 220.170 373.411,220.315 373.942,221.101 374.786 C 222.092 375.850,226.907 375.674,229.047 374.495 C 229.513 374.238,230.018 374.151,230.169 374.302 C 230.319 374.452,230.324 374.266,230.178 373.888 C 230.027 373.493,230.103 373.200,230.357 373.200 C 230.601 373.200,230.755 372.976,230.700 372.702 C 230.628 372.341,231.182 372.241,232.704 372.339 C 235.346 372.509,238.874 372.043,238.577 371.562 C 238.454 371.363,238.543 371.200,238.776 371.200 C 239.009 371.200,239.200 371.458,239.200 371.773 C 239.200 372.088,239.539 372.454,239.954 372.585 C 240.368 372.717,240.683 373.109,240.654 373.457 C 240.564 374.509,242.594 375.341,245.000 375.239 C 248.192 375.103,248.651 374.876,249.158 373.181 C 249.583 371.764,249.766 371.601,250.916 371.605 C 252.906 371.614,253.973 372.006,253.730 372.639 C 253.611 372.948,253.724 373.200,253.981 373.200 C 254.237 373.200,254.327 373.394,254.181 373.631 C 253.091 375.394,267.099 376.733,269.177 375.064 C 269.623 374.705,269.686 374.713,269.453 375.100 C 268.963 375.917,269.492 375.672,270.589 374.574 C 271.154 374.010,271.511 373.380,271.384 373.174 C 271.257 372.968,271.343 372.800,271.576 372.800 C 271.809 372.800,272.000 372.338,272.000 371.773 C 272.000 370.885,272.122 370.787,272.900 371.049 C 273.395 371.215,274.239 371.378,274.775 371.410 C 275.331 371.443,275.873 371.796,276.037 372.234 C 276.196 372.655,276.541 373.579,276.805 374.286 C 277.069 374.993,277.401 375.557,277.543 375.538 C 277.684 375.520,279.084 375.527,280.653 375.553 L 283.505 375.600 283.958 377.400 C 284.454 379.369,284.512 379.390,289.000 379.210 C 292.412 379.073,293.351 378.680,293.640 377.266 C 293.963 375.687,294.142 375.485,295.300 375.400 C 295.795 375.364,296.200 375.139,296.200 374.900 C 296.200 374.662,296.364 374.317,296.564 374.133 C 296.776 373.940,296.808 374.010,296.641 374.300 C 296.482 374.575,296.540 374.800,296.769 374.800 C 297.494 374.800,297.730 372.767,297.247 370.677 C 296.734 368.453,297.083 367.811,298.600 368.189 C 299.040 368.299,299.734 368.392,300.143 368.395 C 300.581 368.398,300.805 368.610,300.689 368.912 C 300.280 369.977,302.395 370.448,302.873 369.399 C 303.365 368.319,305.379 367.809,307.600 368.200 C 309.798 368.587,311.877 368.078,312.207 367.071 C 312.364 366.592,312.539 366.065,312.596 365.900 C 312.653 365.735,312.723 364.807,312.750 363.837 C 312.794 362.278,312.893 362.099,313.606 362.286 C 314.251 362.454,314.357 362.354,314.138 361.783 C 313.950 361.293,314.011 361.160,314.332 361.358 C 314.994 361.767,314.913 361.256,314.203 360.546 C 313.875 360.218,313.425 360.061,313.203 360.198 C 312.981 360.335,312.800 360.251,312.800 360.011 C 312.800 359.771,313.075 359.469,313.412 359.340 C 313.936 359.139,313.943 359.041,313.456 358.653 C 313.144 358.404,312.771 357.527,312.627 356.705 C 312.323 354.966,311.293 354.269,308.675 354.030 C 308.496 354.013,308.382 353.685,308.421 353.300 C 308.562 351.918,308.393 351.157,308.000 351.400 C 307.780 351.536,307.600 351.446,307.600 351.200 C 307.600 350.954,307.420 350.864,307.200 351.000 C 306.980 351.136,306.800 350.947,306.800 350.580 C 306.800 350.088,306.564 349.973,305.900 350.140 C 305.012 350.364,305.002 350.322,305.120 346.884 C 305.291 341.936,304.882 340.303,303.345 339.799 C 301.871 339.317,300.733 338.431,301.011 337.982 C 301.122 337.802,301.027 337.540,300.800 337.400 C 300.573 337.260,300.508 336.949,300.655 336.711 C 300.813 336.456,300.738 336.391,300.475 336.554 C 300.228 336.706,299.797 336.464,299.517 336.016 C 299.237 335.567,298.691 335.200,298.304 335.200 C 297.891 335.200,297.600 334.900,297.600 334.476 C 297.600 333.543,296.437 331.918,296.401 332.800 C 296.381 333.276,296.291 333.255,295.969 332.702 C 295.745 332.317,294.852 331.890,293.981 331.751 C 293.077 331.606,292.400 331.274,292.400 330.976 C 292.400 330.689,292.040 330.340,291.600 330.200 C 291.160 330.060,290.800 329.718,290.800 329.440 C 290.800 329.161,290.575 328.913,290.300 328.888 C 287.670 328.651,286.400 328.087,286.400 327.157 C 286.400 326.741,286.226 326.400,286.013 326.400 C 285.799 326.400,285.720 326.154,285.835 325.853 C 286.047 325.300,284.717 324.646,283.660 324.783 C 283.321 324.827,283.231 324.657,283.419 324.327 C 283.626 323.960,283.584 323.922,283.279 324.200 C 281.638 325.698,277.428 323.667,278.169 321.736 C 278.280 321.446,278.153 321.252,277.886 321.305 C 277.619 321.357,277.445 321.175,277.500 320.900 C 277.555 320.625,277.255 320.400,276.833 320.400 C 276.412 320.400,275.976 320.625,275.865 320.900 C 275.750 321.185,275.650 321.083,275.632 320.662 C 275.591 319.705,274.041 317.527,273.597 317.802 C 273.409 317.918,273.142 317.830,273.004 317.607 C 272.866 317.383,271.852 317.200,270.750 317.200 C 268.711 317.200,267.018 316.618,267.375 316.041 C 267.806 315.343,265.995 314.016,264.802 314.155 C 264.059 314.242,263.714 314.139,263.875 313.878 C 264.029 313.630,263.881 313.560,263.505 313.704 C 263.160 313.837,262.758 313.825,262.611 313.678 C 262.464 313.531,262.041 313.408,261.672 313.405 C 261.208 313.402,260.961 312.998,260.875 312.100 C 260.806 311.385,260.570 310.800,260.351 310.800 C 260.132 310.800,260.064 310.620,260.200 310.400 C 260.336 310.180,260.066 310.000,259.600 310.000 C 259.134 310.000,258.851 309.841,258.971 309.647 C 259.091 309.453,258.427 309.288,257.495 309.280 C 253.249 309.244,253.393 309.289,252.866 307.833 C 252.371 306.462,249.963 305.481,248.823 306.186 C 247.750 306.849,245.273 305.516,245.014 304.136 C 244.874 303.389,244.601 302.876,244.407 302.995 C 244.214 303.115,243.951 303.044,243.823 302.837 C 243.695 302.631,242.918 302.556,242.095 302.672 C 239.876 302.985,239.749 302.977,238.051 302.417 C 236.657 301.957,236.458 301.726,236.230 300.297 C 236.089 299.415,235.861 298.806,235.723 298.944 C 235.366 299.301,234.305 297.678,234.591 297.214 C 234.722 297.002,234.456 296.456,234.000 296.000 C 233.540 295.540,233.297 294.955,233.454 294.685 C 233.610 294.418,233.339 294.550,232.852 294.978 C 232.009 295.717,231.980 295.718,232.252 295.008 C 232.473 294.433,232.394 294.317,231.907 294.504 C 231.465 294.673,231.127 294.389,230.783 293.558 C 230.116 291.947,229.061 291.472,226.335 291.554 C 224.164 291.619,222.065 290.068,223.026 289.108 C 223.316 288.817,222.353 288.157,221.000 287.719 C 220.340 287.506,219.797 287.060,219.794 286.729 C 219.790 286.397,219.160 285.534,218.394 284.810 C 217.627 284.086,217.225 283.619,217.500 283.771 C 217.775 283.923,218.000 283.857,218.000 283.624 C 218.000 283.078,217.479 283.081,216.930 283.630 C 216.539 284.021,215.388 281.971,215.530 281.138 C 215.555 280.994,215.301 280.771,214.967 280.643 C 214.556 280.485,214.455 280.570,214.656 280.905 C 214.855 281.237,214.732 281.220,214.281 280.855 C 213.911 280.555,213.731 280.105,213.881 279.855 C 214.031 279.605,213.814 279.670,213.400 280.000 C 212.986 280.330,212.770 280.394,212.921 280.142 C 213.072 279.890,212.929 279.582,212.604 279.457 C 212.275 279.331,212.116 278.963,212.244 278.628 C 212.407 278.205,211.934 277.763,210.657 277.143 C 209.658 276.657,208.931 276.111,209.043 275.930 C 209.155 275.748,209.046 275.600,208.800 275.600 C 208.554 275.600,208.461 275.425,208.593 275.211 C 209.066 274.446,207.575 272.850,206.269 272.723 C 205.244 272.624,205.006 272.427,205.032 271.700 C 205.049 271.205,204.914 270.800,204.732 270.800 C 204.549 270.800,204.399 270.575,204.397 270.300 C 204.396 270.025,203.836 269.482,203.152 269.092 C 202.213 268.558,201.961 268.522,202.123 268.944 M56.066 291.829 C 55.339 292.135,54.857 292.568,54.995 292.793 C 55.134 293.017,55.067 293.200,54.847 293.200 C 54.626 293.200,54.518 293.577,54.607 294.037 C 54.724 294.643,54.607 294.811,54.183 294.649 C 53.700 294.463,53.711 294.597,54.245 295.412 C 54.601 295.955,54.736 296.407,54.546 296.416 C 54.043 296.438,56.806 297.601,57.346 297.594 C 57.596 297.591,57.530 297.413,57.200 297.200 C 56.870 296.987,56.803 296.809,57.051 296.806 C 57.299 296.803,57.717 297.059,57.980 297.376 C 58.531 298.040,59.600 297.774,59.600 296.973 C 59.600 296.079,61.200 294.870,62.234 294.984 C 63.399 295.112,63.465 294.665,62.433 293.633 C 62.012 293.212,61.787 292.747,61.933 292.600 C 62.080 292.453,62.020 292.377,61.800 292.431 C 61.580 292.485,60.880 292.315,60.245 292.053 C 59.609 291.792,59.000 291.666,58.892 291.775 C 58.784 291.883,58.401 291.815,58.042 291.622 C 57.632 291.403,56.897 291.480,56.066 291.829 M225.248 298.990 C 225.797 299.790,226.665 300.482,227.298 300.621 C 227.902 300.754,229.000 301.449,229.737 302.165 C 230.475 302.882,232.051 303.784,233.239 304.170 C 234.428 304.556,235.940 305.421,236.600 306.092 C 237.260 306.763,238.520 307.625,239.400 308.008 C 240.280 308.390,241.436 309.175,241.968 309.750 C 242.546 310.375,243.881 311.062,245.280 311.455 C 246.583 311.820,248.018 312.538,248.512 313.071 C 249.320 313.943,252.297 315.594,253.078 315.604 C 253.255 315.606,254.185 316.232,255.144 316.994 C 256.103 317.756,257.500 318.495,258.248 318.635 C 258.997 318.776,259.707 319.050,259.828 319.245 C 259.949 319.440,260.390 319.600,260.808 319.600 C 261.226 319.600,261.891 319.932,262.284 320.337 C 263.096 321.174,264.745 322.089,266.800 322.843 C 267.570 323.125,268.830 323.841,269.600 324.434 C 270.370 325.026,272.125 326.006,273.500 326.610 C 274.875 327.215,276.000 327.846,276.000 328.012 C 276.000 328.179,277.210 328.799,278.689 329.391 C 280.168 329.984,282.059 331.083,282.890 331.834 C 283.722 332.585,284.615 333.200,284.875 333.200 C 285.909 333.200,288.727 334.876,288.917 335.605 C 289.029 336.031,289.778 336.768,290.583 337.243 C 291.488 337.777,292.352 338.757,292.848 339.813 C 293.289 340.752,293.997 341.610,294.420 341.721 C 294.844 341.832,295.369 342.435,295.587 343.061 C 295.805 343.688,296.240 344.680,296.554 345.266 C 297.080 346.251,297.051 346.400,296.169 347.229 C 295.644 347.723,295.115 348.438,294.994 348.818 C 294.810 349.398,294.533 349.454,293.287 349.165 C 289.187 348.212,287.306 348.955,288.442 351.079 C 289.351 352.777,290.540 353.069,292.750 352.135 L 294.665 351.326 295.032 352.163 C 295.259 352.679,296.014 353.153,297.000 353.400 C 298.310 353.727,298.578 353.955,298.478 354.654 C 298.296 355.929,295.288 356.696,292.938 356.068 C 291.976 355.811,290.266 355.600,289.139 355.600 C 287.318 355.600,286.904 355.429,285.424 354.065 C 284.097 352.841,283.346 352.481,281.722 352.289 C 279.801 352.062,277.600 350.639,277.600 349.625 C 277.600 349.138,276.540 348.800,275.016 348.800 C 274.291 348.800,273.051 348.530,272.262 348.200 C 271.472 347.870,270.378 347.600,269.830 347.600 C 269.283 347.600,267.936 347.070,266.837 346.422 C 265.738 345.774,264.155 345.132,263.319 344.996 C 262.484 344.860,261.080 344.507,260.200 344.212 C 259.320 343.917,258.094 343.563,257.476 343.424 C 256.858 343.286,255.596 342.475,254.670 341.622 C 253.653 340.684,252.404 339.962,251.510 339.794 C 250.489 339.603,249.711 339.096,248.995 338.158 C 248.425 337.411,247.400 336.510,246.717 336.157 C 246.034 335.804,245.278 335.350,245.038 335.148 C 243.935 334.223,239.928 331.600,239.618 331.600 C 239.428 331.600,238.361 330.880,237.248 330.000 C 236.134 329.120,235.006 328.400,234.740 328.400 C 233.192 328.400,230.396 326.599,229.978 325.334 C 229.736 324.602,228.923 323.265,228.169 322.363 C 227.416 321.462,226.800 320.591,226.800 320.429 C 226.800 320.266,226.102 319.378,225.250 318.454 C 222.989 316.005,222.694 313.479,224.382 311.026 C 225.049 310.057,225.445 309.205,225.264 309.132 C 225.083 309.060,224.342 307.920,223.618 306.600 C 218.621 297.485,218.642 297.600,221.948 297.600 C 224.180 297.600,224.344 297.669,225.248 298.990 M82.753 300.900 C 82.727 301.175,82.727 301.535,82.753 301.700 C 82.779 301.865,82.125 302.020,81.300 302.044 L 79.800 302.088 81.467 302.417 C 82.384 302.599,83.896 303.299,84.827 303.973 C 85.758 304.648,86.898 305.198,87.360 305.196 C 87.979 305.193,87.726 304.908,86.400 304.114 C 84.163 302.774,82.890 301.529,83.104 300.889 C 83.193 300.620,83.162 300.400,83.033 300.400 C 82.905 300.400,82.779 300.625,82.753 300.900 M73.913 302.295 C 75.076 302.376,76.876 302.376,77.913 302.293 C 78.951 302.211,78.000 302.145,75.800 302.146 C 73.600 302.147,72.751 302.214,73.913 302.295 M45.300 302.857 C 45.025 303.134,44.800 303.221,44.800 303.051 C 44.800 302.102,43.573 304.174,43.418 305.386 C 43.233 306.825,45.090 308.763,46.072 308.156 C 46.252 308.044,46.401 308.278,46.402 308.676 C 46.404 309.173,46.601 309.024,47.029 308.200 C 47.372 307.540,47.985 306.640,48.392 306.200 C 50.016 304.440,49.631 302.632,47.600 302.485 C 46.523 302.407,45.599 302.557,45.300 302.857 M92.295 307.951 C 94.473 310.181,94.571 310.209,93.948 308.422 C 93.638 307.534,93.064 306.935,92.159 306.557 C 90.201 305.739,90.209 305.816,92.295 307.951 M46.233 309.900 C 46.068 310.065,45.453 310.200,44.866 310.200 C 44.141 310.200,43.243 310.757,42.059 311.941 L 40.317 313.683 42.013 313.446 C 43.856 313.188,44.800 312.614,44.800 311.751 C 44.800 311.448,45.139 311.200,45.553 311.200 C 45.970 311.200,46.400 310.843,46.516 310.400 C 46.743 309.531,46.693 309.441,46.233 309.900 M62.466 311.447 C 62.412 312.243,62.356 313.008,62.341 313.147 C 62.159 314.819,64.214 316.196,65.797 315.462 C 66.911 314.946,67.299 312.400,66.264 312.400 C 65.970 312.400,65.519 311.940,65.263 311.377 C 65.006 310.815,64.630 310.458,64.426 310.584 C 64.222 310.710,63.942 310.630,63.804 310.407 C 63.256 309.519,62.559 310.061,62.466 311.447 M39.423 321.600 C 39.575 322.150,39.813 323.680,39.950 325.000 C 40.173 327.141,40.303 327.415,41.156 327.535 C 41.952 327.648,42.060 327.547,41.800 326.935 C 41.627 326.531,41.162 325.256,40.765 324.103 C 39.953 321.746,38.937 319.849,39.423 321.600 M85.780 321.252 C 85.330 321.471,84.716 322.044,84.416 322.525 C 83.950 323.274,83.953 323.338,84.436 322.972 C 84.746 322.736,85.519 322.151,86.154 321.672 C 87.357 320.763,87.186 320.570,85.780 321.252 M92.000 321.316 C 92.550 321.570,93.132 321.963,93.294 322.189 C 93.481 322.450,93.590 322.414,93.594 322.090 C 93.597 321.810,93.138 321.405,92.574 321.190 C 91.173 320.658,90.767 320.747,92.000 321.316 M54.630 322.024 C 54.207 322.451,54.044 322.800,54.268 322.800 C 54.492 322.800,55.002 322.440,55.400 322.000 C 56.328 320.974,55.650 320.995,54.630 322.024 M185.500 323.365 L 184.000 323.741 184.000 328.225 C 184.000 332.362,184.598 335.268,185.305 334.562 C 185.430 334.437,185.929 334.548,186.414 334.807 C 187.008 335.126,187.208 335.136,187.025 334.840 C 186.875 334.598,186.943 334.400,187.176 334.400 C 187.649 334.400,187.736 324.627,187.272 323.595 C 187.053 323.108,186.707 323.063,185.500 323.365 M37.283 328.130 C 36.920 328.531,36.797 328.817,37.011 328.766 C 37.689 328.604,38.806 329.267,38.550 329.680 C 38.413 329.903,38.633 330.015,39.053 329.935 C 39.559 329.839,39.839 329.388,39.922 328.538 C 40.067 327.055,38.480 326.809,37.283 328.130 M118.793 329.856 C 119.779 330.705,121.190 332.060,121.928 332.866 C 123.235 334.294,125.406 335.527,125.843 335.090 C 125.962 334.971,125.730 334.768,125.327 334.640 C 124.924 334.512,123.470 333.365,122.097 332.090 C 120.724 330.816,119.016 329.444,118.300 329.042 C 117.216 328.433,117.297 328.568,118.793 329.856 M232.435 330.000 C 232.609 330.330,232.858 331.101,232.987 331.714 C 233.134 332.410,233.630 333.008,234.311 333.309 C 236.251 334.167,236.948 336.412,235.670 337.690 C 234.890 338.470,231.580 337.302,230.172 335.749 C 226.431 331.622,226.383 331.527,227.224 329.954 C 227.759 328.955,231.901 328.991,232.435 330.000 M77.600 333.600 C 77.160 334.040,76.800 334.614,76.800 334.876 C 76.800 335.143,77.020 335.059,77.300 334.685 C 77.575 334.318,78.160 333.749,78.600 333.421 C 79.040 333.094,79.175 332.820,78.900 332.813 C 78.625 332.806,78.040 333.160,77.600 333.600 M259.867 333.867 C 258.200 335.533,260.329 337.757,263.272 337.424 L 265.600 337.160 265.600 338.318 C 265.600 339.816,266.721 340.804,269.100 341.400 C 270.685 341.797,271.115 342.116,271.694 343.319 C 272.412 344.811,272.958 345.040,276.400 345.296 C 277.523 345.379,277.919 345.646,278.400 346.646 C 279.795 349.542,287.600 349.842,287.600 347.000 C 287.600 345.607,286.299 345.035,282.602 344.802 C 279.487 344.605,279.399 344.572,279.202 343.494 C 278.968 342.213,277.304 341.059,275.097 340.645 C 274.210 340.478,273.433 340.036,273.173 339.549 C 272.549 338.384,269.724 337.219,267.500 337.209 C 265.747 337.201,265.600 337.123,265.600 336.209 C 265.600 334.669,260.960 332.773,259.867 333.867 M86.000 336.777 C 86.000 336.985,85.447 337.480,84.771 337.877 L 83.542 338.600 84.670 338.804 C 85.485 338.951,85.992 339.422,86.502 340.504 C 87.127 341.833,88.400 342.593,88.400 341.637 C 88.400 341.438,88.760 341.369,89.200 341.484 C 89.762 341.631,90.000 341.496,90.000 341.033 C 90.000 340.113,88.817 338.400,88.183 338.400 C 87.467 338.400,86.339 337.222,86.620 336.768 C 86.745 336.565,86.657 336.400,86.424 336.400 C 86.191 336.400,86.000 336.570,86.000 336.777 M89.155 340.291 C 89.545 341.040,89.521 341.145,89.009 340.948 C 88.674 340.820,88.400 340.344,88.400 339.891 C 88.400 338.967,88.492 339.016,89.155 340.291 M114.617 339.627 C 114.762 339.862,114.503 340.153,114.040 340.274 C 112.963 340.555,112.977 340.955,114.090 341.694 C 114.872 342.213,114.923 342.411,114.511 343.316 C 114.228 343.937,114.193 344.398,114.424 344.475 C 114.634 344.545,114.193 344.794,113.444 345.029 C 112.395 345.357,112.124 345.343,112.268 344.968 C 112.370 344.700,112.262 344.362,112.027 344.217 C 111.792 344.072,111.600 343.593,111.600 343.153 C 111.600 342.713,111.420 342.464,111.200 342.600 C 110.980 342.736,110.800 343.197,110.800 343.624 C 110.800 344.051,110.575 344.403,110.300 344.406 C 109.960 344.410,109.988 344.531,110.387 344.783 C 110.766 345.023,111.181 344.986,111.561 344.677 C 112.043 344.287,112.104 344.322,111.899 344.870 C 111.635 345.575,112.248 348.362,112.794 348.937 C 113.389 349.563,116.226 347.489,115.774 346.758 C 115.689 346.620,115.975 346.185,116.409 345.791 C 116.844 345.398,117.203 345.239,117.206 345.438 C 117.209 345.637,117.387 345.530,117.600 345.200 C 118.561 343.713,117.905 341.540,116.191 340.537 C 115.756 340.283,115.445 339.878,115.500 339.637 C 115.555 339.397,115.319 339.200,114.976 339.200 C 114.633 339.200,114.472 339.392,114.617 339.627 M91.275 340.416 C 90.794 340.864,90.400 341.404,90.400 341.616 C 90.400 341.827,90.152 342.000,89.849 342.000 C 89.546 342.000,89.060 342.315,88.768 342.700 C 88.318 343.296,88.322 343.325,88.799 342.900 C 89.597 342.189,90.019 342.281,89.713 343.100 C 89.490 343.694,89.545 343.723,90.079 343.290 C 90.622 342.848,90.742 342.968,90.969 344.176 C 91.492 346.962,92.715 344.566,92.540 341.100 C 92.520 340.715,92.661 340.400,92.852 340.400 C 93.043 340.400,93.200 340.220,93.200 340.000 C 93.200 339.335,92.205 339.550,91.275 340.416 M123.966 342.000 C 123.750 342.946,123.778 344.463,124.015 344.609 C 124.451 344.879,124.732 342.936,124.346 342.326 C 124.162 342.037,123.992 341.890,123.966 342.000 M77.945 343.481 C 77.565 343.951,77.552 344.062,77.903 343.851 C 78.204 343.671,78.502 343.800,78.646 344.175 C 78.913 344.871,80.278 344.994,81.200 344.404 C 81.633 344.126,81.439 344.064,80.500 344.181 C 79.588 344.294,79.200 344.178,79.200 343.794 C 79.200 342.917,78.537 342.752,77.945 343.481 M86.421 347.500 C 86.409 347.775,86.119 348.000,85.776 348.000 C 85.407 348.000,85.269 348.188,85.438 348.462 C 85.616 348.749,85.548 348.815,85.258 348.636 C 84.648 348.259,83.122 348.750,83.418 349.229 C 83.544 349.433,83.457 349.600,83.224 349.600 C 82.759 349.600,82.661 350.772,83.042 351.765 C 83.175 352.112,83.448 352.294,83.648 352.170 C 83.849 352.046,83.907 351.773,83.777 351.562 C 83.647 351.352,83.689 351.214,83.870 351.255 C 84.052 351.296,84.707 351.120,85.326 350.865 C 85.945 350.609,86.770 350.400,87.159 350.400 C 87.606 350.400,87.846 350.121,87.811 349.643 C 87.745 348.757,86.452 346.762,86.421 347.500 M92.000 348.157 C 92.000 348.464,92.296 348.828,92.657 348.967 C 93.569 349.317,93.592 349.120,92.733 348.300 C 92.175 347.767,92.000 347.733,92.000 348.157 M96.000 351.576 C 96.000 352.249,96.069 352.800,96.153 352.800 C 96.493 352.800,96.669 350.766,96.346 350.567 C 96.156 350.449,96.000 350.903,96.000 351.576 " stroke="none" fill="#776b61" fill-rule="evenodd"></path><path id="path4" d="M22.737 216.597 C 22.368 216.965,16.026 217.932,15.271 217.735 C 14.297 217.480,13.200 218.589,13.200 219.829 C 13.200 220.464,12.958 220.821,12.500 220.861 C 12.115 220.894,11.620 220.964,11.400 221.015 C 11.180 221.066,10.597 221.128,10.104 221.154 L 9.207 221.200 9.246 231.533 C 9.289 242.875,9.070 241.950,11.723 242.022 C 12.860 242.053,13.598 243.093,13.409 244.400 C 13.285 245.264,14.396 245.973,15.900 245.987 C 17.067 245.999,17.200 246.120,17.200 247.167 C 17.200 249.411,17.452 249.600,20.435 249.600 C 23.662 249.600,23.726 249.504,23.524 245.004 L 23.400 242.252 25.198 241.808 C 26.482 241.490,27.030 241.139,27.114 240.581 C 27.479 238.151,27.586 238.000,28.943 238.000 C 30.267 238.000,31.200 236.928,31.200 235.408 C 31.200 235.103,31.556 234.741,31.992 234.603 C 32.427 234.464,32.766 234.227,32.745 234.076 C 32.386 231.558,33.612 229.641,36.100 228.828 C 39.254 227.798,38.072 223.357,34.186 221.636 C 33.298 221.243,32.081 220.466,31.482 219.911 C 30.883 219.355,29.719 218.792,28.896 218.659 C 28.073 218.526,26.735 217.963,25.921 217.409 C 24.549 216.473,23.204 216.130,22.737 216.597 M54.690 297.577 C 54.535 298.169,54.149 298.400,53.313 298.400 C 51.728 298.400,50.566 299.600,50.252 301.562 C 50.108 302.463,49.802 303.200,49.572 303.200 C 49.341 303.200,49.245 303.050,49.359 302.867 C 49.472 302.683,49.297 302.533,48.969 302.533 C 48.559 302.533,48.502 302.662,48.787 302.947 C 49.533 303.693,49.220 305.222,48.013 306.724 C 46.954 308.042,46.523 309.123,46.430 310.700 C 46.413 310.975,46.040 311.200,45.600 311.200 C 45.160 311.200,44.800 311.448,44.800 311.751 C 44.800 312.691,43.654 313.313,41.741 313.412 C 40.731 313.463,39.765 313.733,39.593 314.011 C 39.366 314.379,39.227 314.311,39.081 313.758 C 38.971 313.341,38.965 314.620,39.067 316.600 C 39.241 319.965,39.718 321.826,41.463 325.949 C 42.035 327.302,45.886 327.635,46.335 326.371 C 46.409 326.162,46.859 325.803,47.335 325.573 C 48.172 325.169,48.175 325.176,47.424 325.778 C 46.489 326.526,47.107 326.597,48.086 325.853 C 48.529 325.517,48.635 325.195,48.385 324.945 C 47.560 324.120,48.992 323.101,51.233 322.920 C 55.661 322.562,56.987 319.661,57.186 309.900 C 57.208 308.819,62.099 308.888,63.277 309.986 C 63.741 310.419,64.273 310.678,64.459 310.564 C 64.645 310.449,65.007 310.818,65.265 311.383 C 65.610 312.140,66.139 312.477,67.267 312.657 C 68.767 312.897,69.168 313.669,68.847 315.700 C 68.821 315.865,68.935 316.020,69.100 316.045 C 69.265 316.069,70.022 316.160,70.782 316.246 C 72.639 316.458,73.204 317.074,71.968 317.541 C 71.436 317.742,70.865 317.827,70.700 317.729 C 70.535 317.632,70.400 317.763,70.400 318.019 C 70.400 318.276,70.154 318.391,69.853 318.276 C 69.462 318.126,69.300 318.429,69.287 319.333 C 69.255 321.638,68.806 322.456,67.648 322.322 C 66.732 322.215,66.615 322.330,66.720 323.234 C 66.787 323.810,66.565 324.497,66.220 324.783 C 65.546 325.343,65.287 330.640,65.955 330.228 C 66.150 330.107,66.533 330.278,66.807 330.608 C 67.942 331.977,73.200 330.603,73.200 328.938 C 73.200 328.642,73.335 328.444,73.500 328.497 C 73.665 328.550,74.391 328.066,75.113 327.420 C 75.834 326.774,76.821 326.185,77.304 326.111 C 78.686 325.900,78.896 325.452,79.192 322.090 C 79.493 318.665,79.730 318.000,80.647 318.000 C 80.977 318.000,81.149 317.841,81.029 317.646 C 80.652 317.037,83.269 316.234,85.684 316.216 C 86.957 316.207,87.999 316.044,88.000 315.853 C 88.000 315.663,88.369 315.603,88.821 315.721 C 89.951 316.017,92.443 314.408,92.239 313.514 C 92.147 313.110,92.377 312.734,92.799 312.600 C 95.726 311.671,92.125 305.968,88.243 305.386 C 87.226 305.233,85.720 304.623,84.897 304.030 C 82.753 302.487,82.569 302.448,76.919 302.359 C 68.476 302.226,68.400 302.208,68.400 300.358 C 68.400 299.501,68.265 298.821,68.100 298.847 C 67.935 298.873,67.710 298.869,67.600 298.838 C 67.490 298.807,65.603 298.705,63.407 298.611 C 61.109 298.513,59.354 298.261,59.273 298.018 C 59.195 297.785,58.987 297.684,58.811 297.793 C 58.635 297.902,58.268 297.723,57.996 297.396 C 57.724 297.068,57.299 296.803,57.051 296.806 C 56.803 296.809,56.870 297.005,57.200 297.241 C 57.851 297.706,56.897 297.579,55.553 297.023 C 55.104 296.837,54.839 297.007,54.690 297.577 M73.900 298.295 C 75.055 298.376,76.945 298.376,78.100 298.295 C 79.255 298.214,78.310 298.148,76.000 298.148 C 73.690 298.148,72.745 298.214,73.900 298.295 M85.875 321.900 C 85.068 322.505,84.125 323.405,83.781 323.900 C 83.390 324.462,82.743 324.800,82.057 324.800 C 80.324 324.800,80.000 325.456,80.000 328.971 L 80.000 332.182 78.400 333.645 C 76.382 335.490,76.200 341.908,78.113 343.800 C 78.384 344.068,78.430 344.044,78.252 343.728 C 78.106 343.468,78.182 343.135,78.420 342.987 C 78.660 342.839,78.945 343.070,79.059 343.504 C 79.353 344.629,80.961 344.471,81.128 343.300 C 81.198 342.805,81.394 342.400,81.564 342.400 C 81.962 342.400,82.799 340.563,82.803 339.681 C 82.805 339.307,83.531 338.586,84.417 338.080 C 85.577 337.418,86.096 336.820,86.271 335.944 L 86.514 334.729 90.425 334.864 C 94.948 335.021,94.641 334.855,94.932 337.300 C 95.147 339.110,95.111 339.200,94.179 339.200 C 93.575 339.200,93.200 339.430,93.200 339.800 C 93.200 340.130,93.065 340.400,92.900 340.400 C 92.735 340.400,92.563 341.071,92.518 341.891 C 92.473 342.710,92.229 344.247,91.975 345.305 C 91.428 347.582,92.386 348.883,94.966 349.367 C 95.755 349.515,96.413 349.853,96.429 350.118 C 96.612 353.166,96.584 353.872,96.262 354.309 C 95.986 354.684,96.062 354.751,96.548 354.565 C 97.013 354.386,97.144 354.480,96.990 354.881 C 96.870 355.194,97.126 355.771,97.560 356.164 C 98.534 357.045,100.533 355.953,100.239 354.700 C 100.020 353.765,100.209 353.686,103.420 353.378 C 107.767 352.962,109.087 351.233,109.180 345.833 C 109.191 345.192,109.311 344.778,109.448 344.914 C 109.805 345.272,110.800 344.171,110.800 343.419 C 110.800 343.068,111.235 342.615,111.766 342.413 C 112.297 342.211,112.843 341.695,112.979 341.266 C 113.115 340.837,113.599 340.389,114.053 340.270 C 114.508 340.151,114.773 339.881,114.643 339.669 C 114.272 339.069,115.427 338.800,118.373 338.800 C 121.514 338.800,123.446 338.235,124.029 337.147 C 124.255 336.724,124.575 336.461,124.740 336.563 C 124.905 336.665,125.247 336.417,125.499 336.012 C 125.894 335.380,125.811 335.239,124.911 335.013 C 124.335 334.869,123.119 333.997,122.210 333.075 C 117.271 328.072,117.324 328.091,108.300 328.040 C 102.517 328.007,101.200 327.897,101.200 327.443 C 101.200 327.136,100.919 326.778,100.575 326.646 C 100.231 326.514,100.061 326.225,100.198 326.004 C 100.362 325.738,100.108 325.731,99.444 325.983 C 98.614 326.299,98.401 326.232,98.198 325.593 C 98.018 325.027,97.442 324.754,96.041 324.568 C 94.349 324.343,94.077 324.168,93.668 323.039 C 92.796 320.625,88.427 319.987,85.875 321.900 M102.320 341.005 C 102.170 343.757,101.545 343.989,100.936 341.520 C 100.681 340.486,100.355 339.451,100.212 339.220 C 100.052 338.961,100.430 338.800,101.196 338.800 L 102.440 338.800 102.320 341.005 M98.880 346.643 C 98.814 347.059,98.739 347.630,98.713 347.911 C 98.647 348.637,97.827 348.270,97.666 347.443 C 97.472 346.441,97.922 345.506,98.500 345.710 C 98.775 345.807,98.946 346.227,98.880 346.643 " stroke="none" fill="#a27e3a" fill-rule="evenodd"></path></g></svg>